<?xml version="1.0" encoding="UTF-8"?>
<svg id="Camada_2" data-name="Camada 2" xmlns="http://www.w3.org/2000/svg" viewBox="0 0 182.24 111.2">
  <defs>
    <style>
      .cls-1 {
        fill: #f9e7d6;
      }
    </style>
  </defs>
  <g id="Camada_1-2" data-name="Camada 1">
    <g>
      <g>
        <path class="cls-1" d="M155.26,103.84c-.51.82-1.12,1.99-2.24,1.9-.92-.07-1.77-.89-2.23-1.63-1.61-2.59-1.31-6.59-1.53-9.52-.42-5.62-.84-11.25-1.25-16.87.06-.18.14-.35.17-.55.34-2.62.68-5.24,1.02-7.85.09-.66-.25-1.48-.67-1.96-.45-.52-1.22-.94-1.92-.95-1.5-.02-2.57.96-2.85,2.37-3.14-1.41-6.57-.24-9.41,1.67-2.77,1.64-5.13,4.12-6.73,6.79-2,3.35-3.26,7.06-4.68,10.67-.62,1.58-1.21,3.36-2.25,4.72-.18.24-.44.6-.75.77-1.07-1.83-1.4-4.18-1.78-6.24-1.05-5.65-1.7-11.38-1.91-17.12-.05-1.48-1-2.82-2.59-2.91-.24-.01-.5.02-.74.08-.14-.03-.29-.06-.45-.07-1.35-.08-3,1.09-2.91,2.59.26,4.28.03,8.57-.71,12.79-.34,1.94-.83,3.86-1.41,5.75-.28.91-.58,1.81-.91,2.71-.06.15-.12.31-.18.46-.14-.17-.29-.33-.41-.5-.44-.62-.78-1.3-1.1-1.99-.69-1.5-1.1-3.1-1.41-4.73-.78-4.07-.88-8.23-2.01-12.23-.17-.61-.54-1.12-.99-1.51-.07-4.38-.24-8.76-.35-13.14,6.47-.72,12.95-1.32,19.45-1.63,3.74-.18,7.48-.28,11.23-.28,4.25,0,8.59.02,12.21,2.52,2.92,2.01,6.01-2.55,3.1-4.56-6.72-4.63-15.8-3.58-23.54-3.29-7.52.28-15.03.88-22.51,1.69,0-1.27-.01-2.53.02-3.8.1-3.53-5.4-3.88-5.5-.32-.05,1.59-.06,3.19-.05,4.78-2.51.31-5.01.62-7.52.97-.17-1.92-.38-3.85-.65-5.78-.5-3.51-5.89-2.4-5.4,1.1.26,1.83.45,3.65.61,5.48-11.18,1.68-22.32,3.66-33.44,5.67-3.49.63-2.39,6.03,1.1,5.4,10.88-1.96,21.77-3.91,32.71-5.57.16,3.19.25,6.38.37,9.6.01.33.05.66.07.99,0,.04-.01.07-.02.1-.24.36-.41.8-.45,1.34-.3,4.59-.96,9.14-2.08,13.6-.49,1.97-1.07,3.92-1.72,5.84-.23.63-.47,1.26-.79,1.85-.22.4-.47.81-.76,1.16-.06.08-.14.14-.21.2-.04-.04-.07-.09-.11-.13-.23-.33-.42-.7-.6-1.06-.34-.7-.59-1.43-.78-2.18-.5-1.95-.74-3.96-1.02-5.95-.31-2.14-.61-4.27-.92-6.41.18-.47.25-.98.13-1.48-.59-2.38-.99-4.8-1.19-7.24-.05-.64-.65-1.38-1.15-1.73-.57-.38-1.42-.59-2.1-.42-.68.17-1.35.54-1.73,1.15-.11.22-.22.44-.33.66-.01.04-.01.07-.02.11,0,0,0,0,0,0-3.19-.29-6.28.59-8.99,2.44-3.06,2.09-5.06,5.36-5.59,9-.05.37,0,.75.14,1.1-1.11,5.05-.68,10.41,1.47,15.23.81,1.82,1.88,3.85,3.86,4.59,2.19.82,4.29-.44,5.54-2.18,1.27-1.76,2.17-3.94,3.02-5.93.83-1.94,1.53-3.93,2.1-5.96.1.64.18,1.29.28,1.93.36,2.38.84,4.79,1.9,6.97,1.11,2.29,3.06,4.91,5.91,4.64,2.8-.26,4.67-2.89,5.81-5.22.65-1.34,1.16-2.74,1.62-4.17.17-.47.33-.95.48-1.43.14.81.28,1.61.51,2.4,1.03,3.51,3.64,7.25,7.83,6.4,3.16-.64,5.05-3.78,5.99-6.62.35-1.04.62-2.12.86-3.2.48,1.3,1.05,2.57,1.8,3.74,1.26,1.95,3.25,4.61,5.79,4.68,3.02.08,4.05-3.08,4.89-5.39.43-1.16.81-2.34,1.15-3.54.2.98.42,1.95.69,2.91.08.3.18.61.28.91-.02.26,0,.53.06.83.42,1.83,1.24,3.58,2.88,4.49.72.75,1.55,1.37,2.55,1.77,4.23,1.69,6.91-3.27,7.37-6.86.22-.46.43-.92.62-1.39.91,1.98,2.24,3.74,4.03,4.95,4.73,3.17,9.15-2.04,11.07-5.92.31-.62.54-1.27.82-1.9.28,3.95.59,7.89,1,11.82.4,3.84,1.84,7.7,5.47,9.54,4.02,2.04,7.81.18,10.07-3.42,1.88-3-2.67-6.1-4.56-3.1ZM56.93,88.32c-.1-3.53.66-7.05,2.44-10.12.12-.21.18-.43.25-.66.43-.38.91-.71,1.32-1.1,0,0,.01,0,.02-.01.14-.09.29-.17.44-.25.3-.16.6-.31.91-.45.15-.07.31-.13.46-.19.22.03.73-.21.94-.26.26-.06.53-.1.79-.13-.09,3.43-.53,6.85-1.4,10.18-.57,2.18-1.29,4.31-2.15,6.39-.4.97-.84,1.93-1.31,2.87-.22.43-.49.87-.75,1.3-.39-.76-.75-1.56-1.02-2.37-.55-1.66-.89-3.45-.94-5.2ZM92.65,92.53c-.47.92-.94,1.9-1.83,1.24-1.29-.96-1.45-4.31-1.62-5.75-.44-3.68-.45-7.41-.87-11.1-.33-2.89-.52-5.79-.6-8.7-.08-3.11-.19-6.2-.36-9.28,2.41-.34,4.82-.68,7.24-.98.27,9.02.86,18.04-.19,27.02-.29,2.48-.61,5.3-1.76,7.55ZM138.05,87.38c-.7,1.61-1.57,3.54-3.08,4.55-.07.05-.33.17-.49.27-.16-.15-.51-.37-.66-.52-.55-.58-1-1.21-1.37-1.92-1.63-3.19-1.35-7.04.5-10.08.77-1.27,2.18-3.07,3.82-4.36,1.35-.87,2.9-1.37,4.66-1.31-.42,4.62-1.55,9.1-3.39,13.36Z"/>
        <path class="cls-1" d="M78.52,6.05c3.77,1.28,5.77-4.58,1.99-5.86s-5.77,4.58-1.99,5.86Z"/>
        <path class="cls-1" d="M111.58,64.12c3.77,1.28,5.77-4.58,1.99-5.86s-5.77,4.58-1.99,5.86Z"/>
        <path class="cls-1" d="M46.9,23c-.89,4.8-.36,9.84,1.67,14.39.81,1.82,1.88,3.85,3.86,4.59,2.19.82,4.29-.44,5.54-2.18,1.27-1.76,2.17-3.94,3.02-5.93.83-1.94,1.53-3.93,2.1-5.96.1.64.18,1.29.28,1.93.36,2.38.84,4.79,1.9,6.97,1.11,2.29,3.06,4.91,5.91,4.64,2.8-.26,4.67-2.89,5.81-5.22.67-1.37,1.18-2.8,1.64-4.26.52,2.16,1.16,4.43,2.23,6.29,1.54,2.67,4.79,4.5,7.6,2.38,1.95-1.47,3.09-4.28,4.1-6.63.69,1.73,1.72,3.24,3.19,4.25,5.1,3.49,9.93-2.12,12.01-6.25.07-.13.12-.27.18-.4.05,1.41.1,2.83.15,4.24.09,2.53.15,5.2,1.46,7.45,1.44,2.48,4.42,4.15,7.12,2.5,2.34-1.43,3.49-4.89,4.41-7.31,1.13-2.96,1.92-6.05,2.55-9.16.85-4.25,1.49-8.55,1.97-12.87.49.19.99.33,1.51.39,1.06.13,2.19,0,3.17-.46.23-.11.61-.4,1-.71.07.56.13,1.12.18,1.69.12,1.56.14,3.12.16,4.68.04,2.94.04,5.88.28,8.81.22,2.64.36,6.05,2.22,8.13,1.9,2.12,5.24,2.09,7.5.62,2.17-1.42,3.34-3.87,4.33-6.24.12.26.22.54.36.79,1.34,2.41,3.67,5.29,6.69,5.28,2.93,0,5.41-2.44,6.9-4.74.8-1.24,1.49-2.56,2.1-3.93.06.87.13,1.74.19,2.6.23,3.11.37,6.24.72,9.34.29,2.57,1.02,5.27,2.78,7.24,1.62,1.82,3.99,3.04,6.45,2.92,2.92-.13,5-2.12,6.43-4.52,3.02-5.1,4.14-10.94,3.48-16.81-.17-1.48-1.88-2.43-3.25-2.15-1.56.32-2.32,1.77-2.15,3.25.48,4.22-.38,8.7-2.5,12.38-.75,1.31-1.62,2.95-3.31,2.1-1.43-.71-1.98-2.34-2.27-3.8-.44-2.22-.5-4.52-.66-6.78-.19-2.55-.38-5.11-.57-7.66-.21-2.8-.42-5.6-.62-8.4.43-2.97.74-5.96.92-8.96.08-1.44-1.1-2.89-2.59-2.91-1.21-.02-2.28.7-2.7,1.79-3.52-1.52-7.34-.04-10.43,2.38-1.84,1.28-3.46,2.9-4.75,4.68-2.07,2.86-3.37,6.25-4.62,9.52-.33.87-2.74,8.63-4.3,8.18-.51-.15-.66-2.74-.75-3.41-.22-1.77-.29-3.55-.33-5.33-.07-3.39-.03-6.78-.31-10.16-.24-2.88-.55-6.95-4.37-7.04-1.59-.03-2.71.81-3.93,1.7-.67.5-1.11.71-1.5-.26-.19-.49-.47-.83-.79-1.08,0-.03,0-.05,0-.08.26-3.53-5.23-3.87-5.5-.32-.39,5.27-1.01,10.53-1.88,15.74-.83,4.97-1.98,10-4.2,14.55-.13.26-.31.54-.46.82-.1-.19-.18-.34-.17-.31-.12-.33-.18-.68-.24-1.03-.41-2.28-.29-4.7-.37-7.01-.19-5.38-.38-10.76-.56-16.14,0-.15-.06-.28-.08-.42.14-2.08.23-4.16.25-6.25.02-1.44-1.05-2.89-2.59-2.91-1.34-.02-2.68.91-2.87,2.29-2.28-1.52-5.38-.27-7.84,1.51-1.89,1.02-3.57,2.51-4.85,4.36-3.31,4.75-4.43,10.87-6.79,16.11-.57,1.27-1.17,2.52-1.81,3.75-.09.17-.4.61-.66,1.03-.19-.32-.41-.65-.48-.83-.22-.56-.39-1.14-.57-1.72-.41-1.33-.77-2.68-1.08-4.04-1.18-5.24-1.53-10.57-1.1-15.92.02-.25,0-.48-.03-.7,0-.04,0-.09.01-.13.23-3.53-5.26-3.87-5.5-.32-.3,4.59-.96,9.14-2.08,13.6-.56,2.23-1.2,4.45-1.97,6.63-.28.8-.57,1.6-.97,2.34-.22.4-.47.81-.76,1.16-.06.08-.14.14-.21.2-.04-.04-.07-.09-.1-.13-.23-.33-.42-.7-.6-1.06-.34-.7-.59-1.43-.78-2.18-.5-1.95-.74-3.96-1.02-5.95-.54-3.81-1.09-7.62-1.63-11.44.12-1.73.11-3.47-.05-5.2-.06-.64-.64-1.38-1.15-1.73-.57-.38-1.42-.59-2.1-.42-.68.17-1.35.54-1.73,1.15-.11.22-.22.44-.33.66-.04.11-.04.23-.07.34-3.24-.23-6.38.75-9.05,2.73-3.3,2.45-5.26,6.45-5.41,10.53,0,.04,0,.09,0,.13ZM157,28.26c-.74,1.79-1.58,3.84-3.12,5.1-.69.56-.8.67-1.39.01-.61-.67-1.09-1.32-1.49-2.13-1.59-3.22-1.18-7.05.69-10.06.66-1.07,1.77-2.49,3.09-3.66,1.54-1.13,3.31-1.81,5.29-1.79-.41,4.32-1.41,8.51-3.06,12.53ZM104.97,13.38s.04,0,0,0h0ZM100.33,33.15c-1.57,1.24-2.17.02-2.72-1.6-1.23-3.58-.8-7.55.65-11,.7-1.65,1.72-3.22,2.96-4.51.52-.54,1.1-1.04,1.7-1.51.93-.42,1.94-.61,2.92-.39.06.01.11,0,.17.02-.24,4.48-.63,9-2.19,13.23-.73,1.99-1.78,4.4-3.49,5.76ZM55.75,16.62c.13-.1.26-.19.38-.28,0,0,0,0,0,0,.02,0,.02-.01.04-.02.3-.17.6-.34.91-.5.31-.15.62-.28.94-.41.01,0,0,0,.01,0,.01,0,0,0,.02,0,.18-.05.35-.1.53-.15.31-.08.62-.14.94-.18-.09,3.43-.53,6.84-1.4,10.16-.57,2.18-1.29,4.31-2.15,6.39-.4.97-.84,1.93-1.31,2.87-.22.43-.49.87-.75,1.3-.39-.76-.75-1.56-1.02-2.37-.55-1.66-.89-3.45-.94-5.2-.1-3.53.66-7.05,2.44-10.12.08-.13.1-.28.16-.41.13-.13.26-.26.39-.38.26-.24.53-.47.8-.68Z"/>
        <path class="cls-1" d="M22.66,40.47c1.48,2.46,4.74,1.67,5.22-1.05.89-5.05,2.04-10.04,3.43-14.98.54-1.92.9-4.42,1.99-6.13.53-.82.42-.78.94-.01.64.94.75,2.44.96,3.5.96,4.82,1.92,9.64,2.89,14.46.78,3.9,1.8,7.39,4.87,10.08,2.66,2.34,5.72-2.25,3.1-4.56-1.69-1.48-2.06-4.1-2.48-6.18-.62-3.01-1.2-6.03-1.8-9.04-.88-4.41-1.07-12.42-6.25-14.2-5.32-1.82-7.58,4.09-8.75,8.01-.91,3.05-1.72,6.12-2.44,9.22-1.28-4.86-2.15-9.88-4.88-14.2-1.04-1.65-3.55-2.24-4.75-.33-3.76,5.99-4.05,13.06-5.77,19.67-1.61-6.26-2.8-12.61-3.5-19.05-.39-3.52-5.78-2.4-5.4,1.1,1.01,9.19,2.94,18.22,5.78,27.02.65,2.01,3.69,3.28,4.98,1,3.78-6.68,3.69-14.68,6.15-21.74,1.98,5.75,2.52,12.06,5.73,17.38Z"/>
        <path class="cls-1" d="M49.59,100.87c-1.69-1.48-2.06-4.1-2.48-6.18-.62-3.01-1.2-6.03-1.8-9.04-.88-4.41-1.07-12.42-6.25-14.2-5.32-1.82-7.58,4.09-8.75,8.01-.91,3.05-1.72,6.12-2.44,9.22-1.28-4.86-2.15-9.88-4.88-14.2-1.04-1.65-3.55-2.24-4.75-.33-3.76,5.99-4.05,13.06-5.77,19.67-1.61-6.26-2.8-12.61-3.5-19.05-.39-3.52-5.78-2.4-5.4,1.1,1.01,9.19,2.94,18.22,5.78,27.02.65,2.01,3.69,3.28,4.98,1,3.78-6.68,3.69-14.68,6.15-21.74,1.98,5.75,2.52,12.06,5.73,17.38,1.48,2.46,4.74,1.67,5.22-1.05.89-5.05,2.04-10.04,3.43-14.98.54-1.92.9-4.42,1.99-6.13.53-.82.42-.78.94-.01.64.94.75,2.44.96,3.5.96,4.82,1.92,9.64,2.89,14.46.78,3.9,1.8,7.39,4.87,10.08,2.66,2.34,5.72-2.25,3.1-4.56Z"/>
      </g>
      <path class="cls-1" d="M181.83,75.84c.23-1.19.17-2.53-.43-3.63-.48-.87-1.12-1.62-1.92-2.21-1.13-.84-3.01-1.2-4.37-.88-.99.23-1.97.47-2.96.7-.11-.38-.25-.75-.44-1.12-1.63-3.09-5.47-4.3-8.59-2.75-2.38,1.18-3.82,3.76-3.78,6.4.07,4.22,1.15,8.53,3.49,12.09.45.9,1.09,1.64,1.92,2.21.64.47,1.36.75,2.13.83.73.21,1.48.23,2.24.04.98-.21,1.85-.63,2.61-1.29,3.03-2.06,5.81-4.46,8.28-7.16.33-.37.66-.74.99-1.11.47-.64.75-1.36.83-2.13Z"/>
    </g>
  </g>
</svg>