<?xml version="1.0" encoding="UTF-8"?>
<svg id="Camada_2" data-name="Camada 2" xmlns="http://www.w3.org/2000/svg" viewBox="0 0 29.6 747.42">
  <defs>
    <style>
      .cls-1 {
        fill: #7d876d;
      }
    </style>
  </defs>
  <g id="Camada_1-2" data-name="Camada 1">
    <path class="cls-1" d="M29.55,736.17c-3.91-33.61-4.6-67.67-5.44-101.46-1.24-49.97-1.53-99.96-1.6-149.94-.08-56.87.22-113.74.62-170.6.38-54.59.87-109.18,1.24-163.76.29-42.51.58-85.02.26-127.53-.03-4-.07-8-.12-12-.17-14.47-22.67-14.51-22.5,0,.48,40.56.22,81.13-.02,121.69-.32,53.44-.81,106.87-1.2,160.31C.36,349.93.01,407,0,464.08c-.01,51.52.19,103.05,1.24,154.56.74,36.18,1.47,72.53,4.86,108.58.28,2.99.59,5.97.94,8.95.7,6.03,4.67,11.25,11.25,11.25,5.54,0,11.96-5.17,11.25-11.25h0Z"/>
  </g>
</svg>