<?xml version="1.0" encoding="UTF-8"?>
<svg id="Camada_2" data-name="Camada 2" xmlns="http://www.w3.org/2000/svg" viewBox="0 0 316.56 273.7">
  <defs>
    <style>
      .cls-1 {
        fill: #fff;
      }
    </style>
  </defs>
  <g id="Camada_1-2" data-name="Camada 1">
    <g>
      <path class="cls-1" d="M15.44,181.26c.46-18.65,1.69-37.35,5.09-55.72,3.11-16.84,8.02-33.41,15.66-48.77,6.99-14.07,16.14-27.12,27.68-37.84,12.85-11.95,28.56-19.92,44.53-26.89,8.43-3.68,17.13-6.73,26.32-7.7,9.48-1.01,19.09-.54,28.59-.14s19.24.98,28.84,1.82,18.47,2,27.51,4.14c15.64,3.71,30.99,10.54,42.27,22.29s16.03,26.33,18.7,41.53c2.76,15.7,3.23,31.69,5.54,47.46,2.69,18.31,8.27,36.08,10.69,54.44.59,4.51.97,9.04,1.1,13.58.06,2.41,3.81,2.42,3.75,0-.51-19.1-5.83-37.55-9.63-56.15-1.72-8.45-2.94-16.94-3.81-25.52-.83-8.13-1.47-16.28-2.49-24.39-1.95-15.62-5.29-31.57-14.19-44.86-9.09-13.57-23.13-22.74-38.31-28.25-17.79-6.46-36.96-7.9-55.71-9.08C167.79.57,157.98.07,148.18,0s-19.22.76-28.46,3.68-17.26,6.74-25.53,10.78c-8.22,4.01-16.25,8.5-23.59,13.99-12.88,9.63-23.48,21.97-31.77,35.71-8.73,14.48-14.88,30.4-18.96,46.78-4.6,18.43-6.7,37.42-7.65,56.36-.23,4.65-.4,9.3-.51,13.95-.06,2.41,3.69,2.41,3.75,0h0Z"/>
      <path class="cls-1" d="M3.72,184.01c1.96-4.79,4.34-9.41,7.07-13.81,2.02-3.26,4.59-7.36,8.52-8.5,3.37-.98,6.42,1.29,7.12,4.62.27,1.29.14,3.36-1.07,4.2s-1.9-1.35-2.12-2.2c-.56-2.22-.07-4.83.33-7.04.47-2.57,1.12-5.1,1.79-7.63,1.04-3.96,2.29-8.24,5.43-11.08,1.64-1.48,3.75-2.3,5.84-2.9s4.68-1.52,6.83-.95c3.34.88,4.71,4.91,5.27,7.93,1.03,5.52.1,11.57-.69,17.07-.89,6.2-1.85,12.4-2.78,18.59-.15,1.01.25,2,1.31,2.31.88.25,2.16-.31,2.31-1.31,1-6.68,2.06-13.36,2.98-20.05.81-5.9,1.64-12.2.39-18.1-.91-4.28-3.43-9.12-8.09-10.12-2.81-.6-5.82.25-8.52,1.02s-5.37,1.94-7.5,3.86c-3.91,3.54-5.42,8.91-6.68,13.84-.79,3.09-1.55,6.19-1.93,9.37-.33,2.72-.43,5.48.77,8.01.99,2.09,3,3.73,5.42,3.25s4.05-3.05,4.43-5.38c.74-4.5-1.94-9.26-6.25-10.84-5.73-2.1-10.91,2.48-14.08,6.73-4.07,5.47-7.14,11.83-9.72,18.11-.39.94.42,2.05,1.31,2.31,1.07.31,1.92-.38,2.31-1.31h0Z"/>
      <path class="cls-1" d="M49.99,182.03c1.94-7.32,4.58-14.44,7.94-21.23,1.61-3.24,3.31-6.5,5.34-9.5,1.75-2.6,4.04-5.17,7.11-6.15,2.74-.88,5.91-.56,7.73,1.89,1.65,2.22,1.93,5.25,2.08,7.92.46,8.04.42,16.14.11,24.19-.36,9.12-1.15,18.22-2.41,27.26-.14,1.01.25,2,1.31,2.31.96.27,2.06-.33,2.31-1.31,1.66-6.56,3.79-13.01,6.4-19.26,1.3-3.11,2.74-6.18,4.28-9.18,1.45-2.83,2.98-5.7,5.12-8.08,7.35-8.16,19.97-8.84,29.11-3.44,5.36,3.17,9.5,8.04,12.19,13.62,1.05,2.17,4.28.27,3.24-1.89-5.23-10.84-16.13-19.26-28.51-19.02-5.89.11-11.7,2.08-16.29,5.81-5.35,4.35-8.33,11.2-11.09,17.34-3.35,7.45-6.05,15.18-8.06,23.1l3.62,1c2.42-17.41,3.54-35.24,2.41-52.8-.21-3.23-.67-6.73-2.57-9.45-2.02-2.89-5.34-4.43-8.87-4.19-7.97.55-12.36,7.79-15.8,14.12-4.45,8.2-7.91,16.94-10.31,25.96-.62,2.33,3,3.33,3.62,1h0Z"/>
      <path class="cls-1" d="M126.99,235.29c1.14-10.91,3.27-21.71,6.32-32.25,2.75-9.51,6.14-19.25,12.37-27.09,5.55-6.99,13.81-12.61,22.97-12.92,8.98-.3,17.03,4.74,22.74,11.34,7.4,8.57,10.82,19.79,14.14,30.39.5,1.61,3.31,1.95,3.62,0,2.1-13.48,6.91-26.45,14.2-37.99,3.25-5.15,7.01-10.67,12.63-13.45,4.86-2.4,10.43-1.58,15,1.07,5.37,3.1,9.52,8.37,11.42,14.27.74,2.29,4.36,1.31,3.62-1-3.6-11.21-15.19-21.83-27.68-19.1-6.62,1.45-11.48,6.63-15.28,11.92-4.29,5.98-7.83,12.49-10.69,19.26-3.25,7.7-5.55,15.76-6.84,24.02h3.62c-3.19-10.19-6.48-20.76-12.98-29.4-5.74-7.62-13.94-13.76-23.62-14.92s-19.4,3.44-26.25,10.19c-7.53,7.43-11.87,17.43-15.06,27.34-4.01,12.44-6.63,25.3-7.99,38.3-.11,1.01.94,1.88,1.88,1.88,1.1,0,1.77-.86,1.88-1.88h0Z"/>
      <path class="cls-1" d="M15.91,198.21c2.08-4.94,4.73-9.87,8.02-14.11,1.43-1.85,3.22-3.66,5.53-4.32,1.94-.56,4.07-.26,5.39,1.39s1.65,3.85,1.94,5.8c.39,2.59.67,5.21.91,7.82.52,5.57.74,11.28-.22,16.81-.26,1.52-.7,2.98-1.03,4.48-.28,1.31-.07,2.84,1.32,3.43,3.08,1.32,4.47-4.18,1.02-4.2-2.41-.02-2.42,3.73,0,3.75h.16c-.54-.31-1.08-.62-1.62-.93l.07.1-.26-.95.59-1.07,1.44-.19.9,1.01.05-.11c.18-.15.24-.89.31-1.13.15-.6.29-1.21.42-1.82.29-1.38.5-2.78.66-4.18.33-2.71.42-5.45.36-8.18-.11-5.33-.67-10.73-1.51-15.99-.67-4.18-2.56-8.69-7.16-9.65-4.89-1.03-9.17,1.98-12.04,5.65-3.69,4.72-6.54,10.1-8.85,15.6-.4.94.43,2.05,1.31,2.31,1.08.31,1.92-.38,2.31-1.31h0Z"/>
      <path class="cls-1" d="M42.86,217.31c2.73-7.12,5.46-14.24,8.19-21.37.64-1.68,1.28-3.36,1.93-5.04.53-1.36,1.12-2.77,2.17-3.81,2.01-1.99,5.35-2.53,8.04-2.88,3.05-.4,5.83.18,7.68,2.8,1.75,2.48,2.1,5.5,1.93,8.45-.21,3.61-1.03,7.21-1.67,10.77s-1.32,7.18-2.06,10.76c-1.64,7.92-3.61,15.77-6.33,23.39l3.43-.45c-.3-.52-.59-1.04-.89-1.56-1.19-2.1-4.44-.21-3.24,1.89.3.52.59,1.04.89,1.56.85,1.48,2.91,1.01,3.43-.45,2.66-7.47,4.62-15.16,6.23-22.92.81-3.89,1.54-7.79,2.24-11.7s1.59-7.82,1.75-11.77c.27-6.85-3.28-14.37-10.95-14.66-3.32-.13-7.12.67-10.14,2.06-3.33,1.53-4.93,4.42-6.2,7.7-3.37,8.73-6.7,17.47-10.04,26.21-.86,2.26,2.76,3.23,3.62,1h0Z"/>
      <path class="cls-1" d="M76.62,212.36c5.03-.98,10.48-1.03,15.27,1.02,3.76,1.61,7.18,4.72,8.55,8.64,1.77,5.07-.1,10.85-1.13,15.89-1.16,5.67-2.42,11.32-3.78,16.94-1.3,5.39-2.53,11.22-6.2,15.57-1.55,1.83,1.09,4.5,2.65,2.65,3.67-4.34,5.32-9.73,6.66-15.16,1.52-6.15,2.91-12.33,4.18-18.53,1.19-5.79,3.24-12.36,1.29-18.2-1.53-4.59-5.08-8.38-9.35-10.58-5.91-3.04-12.75-3.11-19.14-1.87-2.37.46-1.36,4.08,1,3.62h0Z"/>
      <path class="cls-1" d="M102.97,218.55c3.93-4.12,11.09-4.32,15.18-.34,1.73,1.68,4.39-.96,2.65-2.65-5.51-5.36-15.16-5.25-20.49.34-1.67,1.75.98,4.4,2.65,2.65h0Z"/>
      <path class="cls-1" d="M105.46,239.19c4.92-3.98,9.72-8.22,14.88-11.89,4.13-2.93,9.72-6.14,14.84-3.76,4.06,1.89,6.13,6.41,7.51,10.41,1.86,5.41,3.35,11.08,3.09,16.84-.28,6.26-2.47,12.29-6.12,17.36-.6.83-.14,2.08.67,2.57.94.56,1.98.14,2.57-.67,3.63-5.05,5.81-10.99,6.47-17.17s-.76-12.78-2.73-18.9c-1.58-4.92-3.88-10.11-8.38-13.01-5.35-3.45-11.77-1.82-16.9,1.19-3.22,1.89-6.1,4.31-8.99,6.65l-9.56,7.72c-.79.64-.65,1.98,0,2.65.77.79,1.87.63,2.65,0h0Z"/>
      <path class="cls-1" d="M133.63,205.02c4.1-.4,7.59,2.37,9.77,5.63,2.72,4.05,4.12,8.82,6.67,12.97.68,1.11,2.61,1.33,3.24,0,2.57-5.44,2.88-11.38,2.95-17.31.03-2.95.04-5.9.32-8.84.21-2.17.19-5.63,2.91-6.03,2.46-.37,5.19.76,7.48,1.47,3.07.95,6.11,2.04,9.08,3.27,4.54,1.88,10.45,4.24,11.24,9.78.47,3.3-.43,6.84-1.14,10.04-.82,3.68-1.88,7.3-3.16,10.85-.82,2.28,2.8,3.26,3.62,1,1.22-3.4,2.25-6.86,3.05-10.39.76-3.33,1.57-6.86,1.47-10.29-.1-3.2-1.21-6.15-3.45-8.46-1.98-2.04-4.52-3.44-7.08-4.61-3.17-1.45-6.42-2.73-9.72-3.86-3.07-1.05-6.27-2.22-9.52-2.53-2.79-.27-5.71.56-7.12,3.17-.72,1.34-.94,2.91-1.15,4.4-.23,1.66-.38,3.32-.46,4.99-.33,7.13.59,14.81-2.56,21.47h3.24c-2.83-4.6-4.28-9.97-7.62-14.27-2.85-3.68-7.21-6.66-12.06-6.18-1.01.1-1.88.79-1.88,1.88,0,.94.86,1.98,1.88,1.88h0Z"/>
      <path class="cls-1" d="M191.39,204.6c3.63-7.71,6.08-16.4,13.54-21.4,6.48-4.35,15.66-5.9,22.74-2.01,4.03,2.22,6.79,6.34,6.29,11.04-.11,1.01.94,1.88,1.88,1.88,1.1,0,1.77-.86,1.88-1.88.5-4.61-1.7-9.31-5.22-12.26-3.76-3.15-8.63-4.6-13.49-4.72-9.23-.21-18.17,4.48-23.38,12.06-3.25,4.72-5.03,10.24-7.46,15.39-1.02,2.17,2.21,4.08,3.24,1.89h0Z"/>
      <path class="cls-1" d="M236.57,221.62c-5.41-11.48-6.92-25.98.42-37,3.05-4.58,7.55-8.43,12.74-10.35s11.26-2.27,15.78.92c2.89,2.04,3.75,5.43,4.35,8.72.79,4.28,1.19,8.62,1.29,12.97l3.68-.5c-.17-.78-.34-1.56-.51-2.33-.51-2.36-4.13-1.36-3.62,1,.17.78.34,1.56.51,2.33.45,2.07,3.73,1.6,3.68-.5-.09-4.2-.49-8.39-1.17-12.54-.6-3.61-1.38-7.28-3.79-10.15-4.29-5.11-12.01-5.83-18.13-4.46s-11.78,5.14-15.8,9.97c-4.49,5.39-6.96,11.93-7.61,18.89-.8,8.56,1.3,17.19,4.94,24.9,1.03,2.18,4.26.28,3.24-1.89h0Z"/>
      <path class="cls-1" d="M268.83,173.43c.35-4.21,3.28-7.98,7.07-9.72,3.91-1.8,8.49-1,11.98,1.37,7.63,5.18,6.86,17.16-.75,21.96-3.84,2.42-8.93,3.14-13.17,1.32-.94-.4-2-.27-2.57.67-.47.78-.26,2.17.67,2.57,10.36,4.43,23.06-1.79,24.73-13.25.83-5.68-1-11.62-5.49-15.35-4.24-3.52-10.22-5.1-15.54-3.26-5.91,2.05-10.17,7.46-10.69,13.69-.2,2.4,3.55,2.39,3.75,0h0Z"/>
      <path class="cls-1" d="M283.53,172.96c.76,13.19-3.13,26.31-10.48,37.24-3.66,5.46-8.22,10.39-13.46,14.37-5.96,4.54-12.73,7.6-19.78,10.03-9.33,3.22-18.8,6.09-28.2,9.11-2.29.73-1.31,4.36,1,3.62,8.66-2.78,17.35-5.49,25.98-8.36,7.52-2.5,14.91-5.45,21.41-10.07,11.35-8.07,19.85-19.82,24.21-33.03,2.43-7.36,3.52-15.18,3.07-22.92-.14-2.4-3.89-2.41-3.75,0h0Z"/>
      <path class="cls-1" d="M219.22,240.99c-6.94,4.06-14.9,5.58-22.8,6.47-8.33.94-16.71,1.36-24.93,3.13-8.76,1.89-17.26,4.84-26.05,6.57s-18.38,1.44-27.63.5c-9.45-.96-18.83-1.84-28.33-2.19-9.33-.34-18.71-.53-27.97-1.81-14.65-2.02-29.74-7.17-40-18.31-5.48-5.95-8.47-13.21-10.13-21.06-1.93-9.11-2.88-18.47-3.24-27.76-.09-2.36-.14-4.73-.14-7.09s-3.76-2.42-3.75,0c.02,9.79.81,19.57,2.33,29.25,1.34,8.49,3.3,17.01,8.23,24.21,8.53,12.49,23.03,19.73,37.48,22.93,18.78,4.16,38.25,2.72,57.28,4.71,9.57,1,19.21,2.34,28.84,1.44s18.15-3.68,27.11-6.05c4.33-1.14,8.69-2.16,13.12-2.81,4.16-.61,8.35-.96,12.53-1.35,8.21-.77,16.61-1.62,24.32-4.76,1.94-.79,3.82-1.69,5.63-2.75,2.08-1.22.2-4.46-1.89-3.24h0Z"/>
      <path class="cls-1" d="M21.09,181.29c-2.5,17.27-4.3,34.65-5.34,52.07-.29,4.93-.53,9.86-.7,14.8h3.75c0-6.67.83-13.3,2.51-19.76,1.41-5.4,3.21-11.27,7.45-15.17,3.57-3.28,9.4-4.72,13.32-1.2,3.25,2.92,4.44,7.63,4.34,11.86-.17,7-3.22,13.64-4.03,20.57-.25,2.11,3.19,2.52,3.68.5,1.28-5.24,2.57-10.48,3.85-15.73.61-2.51,1.08-5.12,1.89-7.57.57-1.72,1.84-2.26,3.53-1.8,3.9,1.05,6.45,5.11,8.11,8.51,1.93,3.96,2.76,8.44,2.45,12.83-.4,5.59-2.35,11.05-.76,16.64.42,1.46,2.69,1.94,3.43.45,3.63-7.41,3.41-15.8,6.2-23.46,2.02-5.57,6.55-11.46,13.19-10.21,2.85.54,5.38,2.2,5.94,5.18.45,2.37,4.07,1.37,3.62-1-1.31-6.88-9.91-9.55-15.88-7.29-7.89,2.99-10.93,12.02-12.37,19.57-.98,5.17-1.6,10.55-3.94,15.33l3.43.45c-1.54-5.42.72-11,.94-16.45.21-5.06-1.02-10.16-3.37-14.64-2.11-4.02-5.28-8.13-9.83-9.46-2.09-.61-4.37-.44-6.11.95-2.04,1.63-2.45,4.32-3.04,6.72-1.63,6.67-3.27,13.34-4.9,20.02l3.68.5c.81-6.9,3.8-13.41,4.03-20.41.17-5.13-1.39-10.85-5.2-14.47-4.42-4.19-10.89-4.21-15.96-1.17-5.56,3.32-8.42,9.44-10.27,15.39-2.45,7.86-3.66,16.12-3.67,24.36,0,2.42,3.66,2.41,3.75,0,.62-17.19,1.94-34.36,3.99-51.44.58-4.82,1.22-9.63,1.91-14.43.15-1.01-.25-2-1.31-2.31-.88-.25-2.16.31-2.31,1.31h0Z"/>
      <path class="cls-1" d="M150.22,241.14c.39-5.02,2.59-9.87,5.97-13.59,3.69-4.05,8.43-6.44,13.81-7.37,3.11-.54,6.31-.58,9.46-.54,2.72.04,5.46.12,8.16.49,4.6.63,9.61,2.09,12.56,5.93,2.08,2.71,2.79,6.25,3.23,9.56.51,3.85.6,7.76.34,11.64l.26-.95-.06.1,2.12-.86,1.04,1.07-.48,1.82.09-.07c1.85-1.55-.81-4.19-2.65-2.65l-.09.07c-.47.39-.7,1.25-.48,1.82.28.76.75,1.36,1.58,1.55s1.66-.13,2.12-.86.36-1.69.4-2.5c.04-.97.06-1.94.06-2.91,0-1.94-.11-3.89-.31-5.82-.37-3.55-.93-7.13-2.44-10.39-2.56-5.52-8.04-8.51-13.78-9.73-6.08-1.29-12.76-1.43-18.92-.81-6.54.65-12.59,2.89-17.39,7.47-4.82,4.61-7.81,10.89-8.33,17.53-.19,2.41,3.56,2.39,3.75,0h0Z"/>
      <path class="cls-1" d="M205.03,233.63c2.16-8.09,6.34-16.55,14.01-20.7,6.28-3.4,15.42-3.19,20.27,2.6,3.26,3.89,3.88,9.36,4.45,14.21.23,2,3.04,2.67,3.68.5,2.08-7.03,5.81-13.52,10.9-18.81,2.41-2.51,5.18-5.52,8.98-4.42,3.39.98,5.35,4.23,6.29,7.42,1.33,4.48,1.15,9.25-.26,13.69-.73,2.31,2.89,3.29,3.62,1,1.49-4.69,1.71-9.75.56-14.53-.98-4.09-3.16-8.25-7.01-10.29-1.85-.98-3.97-1.48-6.06-1.23-2.34.28-4.24,1.52-5.98,3.03-3.28,2.85-6.14,6.24-8.53,9.86-2.69,4.09-4.75,8.59-6.14,13.28l3.68.5c-.6-5.12-1.25-10.53-4.12-14.96-2.46-3.78-6.35-6.33-10.74-7.3s-8.85-.58-12.92,1.03c-4.55,1.8-8.3,5.02-11.24,8.89-3.41,4.49-5.63,9.82-7.08,15.24-.62,2.33,2.99,3.33,3.62,1h0Z"/>
      <path class="cls-1" d="M174.33,132.56c3.57-5.35,6.25-11.26,7.95-17.46l-3.62-1c-1.01,6.51-2.64,12.9-4.29,19.27-.51,1.97,2.54,3.45,3.43,1.44,2.58-5.85,4.52-11.92,5.7-18.21l-3.62-1c-.89,5.79-1.2,11.62-.84,17.47.15,2.39,3.74,2.44,3.75,0,.03-5.36-.08-10.72-.31-16.07-.11-2.42-3.59-2.4-3.75,0-.53,7.75-.33,15.53.61,23.25l3.68-.5c-.71-3.14-1.73-6.16-2.98-9.12l-3.24,1.89c1.12,2.5,2.24,5,3.36,7.51.8,1.78,3.47.78,3.49-.95.12-7.31-.24-14.62-1.08-21.88-.12-1.01-.78-1.88-1.88-1.88-.99,0-1.91.86-1.88,1.88.31,7.91,1.19,15.84,2.79,23.6.69,3.36,1.73,6.73,3.96,9.4,2.05,2.45,5.16,4.11,8.41,3.91l-1.33-3.2c-1.01.9-3.55-1.59-4.21-2.19-1.56-1.43-2.92-3.04-4.05-4.82-2.23-3.51-3.56-7.52-3.78-11.68-.13-2.4-3.88-2.42-3.75,0,.29,5.45,2.13,10.78,5.39,15.17,2.53,3.41,8.48,10.2,13.04,6.17,1.19-1.05.27-3.3-1.33-3.2-6.44.4-8.19-7.47-9.09-12.31-1.29-6.89-2.04-13.85-2.31-20.85h-3.75c.83,7.27,1.19,14.57,1.08,21.88l3.49-.95c-1.12-2.5-2.24-5-3.36-7.51-.42-.93-1.75-1.13-2.57-.67-.97.55-1.06,1.64-.67,2.57,1.12,2.65,1.97,5.42,2.6,8.23.46,2.02,3.94,1.63,3.68-.5-.93-7.72-1.14-15.49-.61-23.25h-3.75c.24,5.35.34,10.71.31,16.07h3.75c-.34-5.5-.14-11.02.71-16.47.16-1.01-.26-2.01-1.31-2.31-.91-.26-2.12.32-2.31,1.31-1.12,5.95-2.88,11.77-5.33,17.31l3.43,1.44c1.64-6.38,3.27-12.76,4.29-19.27.36-2.33-2.96-3.38-3.62-1-1.62,5.91-4.17,11.47-7.58,16.56-1.34,2.01,1.9,3.89,3.24,1.89h0Z"/>
      <path class="cls-1" d="M86.4,111.3c-3.12,1.39-6.35,2.53-9.65,3.41s-6.83,1.85-10.16,1.08c-3.06-.71-5.61-2.8-8.09-4.63-3.04-2.24-6.07-4.48-9.11-6.72-.82-.61-2.08-.13-2.57.67-.57.95-.14,1.97.67,2.57,3.23,2.39,6.47,4.77,9.7,7.16,2.8,2.07,5.77,4.2,9.3,4.74,3.71.57,7.45-.26,11.03-1.2s7.28-2.29,10.77-3.84c.93-.42,1.13-1.75.67-2.57-.55-.96-1.65-1.08-2.57-.67h0Z"/>
      <path class="cls-1" d="M63.68,123.49c-3.35-8.89-2.63-18.56-.93-27.73,1.65-8.87,4.23-18.01,9.97-25.18,2.95-3.69,6.58-6.71,10.89-8.68.93-.43,1.14-1.75.67-2.57-.54-.95-1.65-1.09-2.57-.67-8.31,3.81-14.28,11.37-17.83,19.62-2,4.65-3.36,9.52-4.37,14.48s-1.77,9.97-1.93,15.02c-.18,5.66.47,11.39,2.47,16.71.84,2.24,4.47,1.27,3.62-1h0Z"/>
      <path class="cls-1" d="M78.53,103.43c-1.24-11.79-2.47-24.55,2.89-35.58,2.31-4.76,5.71-8.9,10.31-11.59s10.37-3.95,15.86-3.78c9.98.3,19.99,5.27,25.93,13.36,3.43,4.67,5.46,10.14,7.15,15.63,1.83,5.95,3.58,11.97,4.94,18.05,1.38,6.19,2.22,12.51,1.78,18.85-.44,6.33-2.1,12.5-3.96,18.54-1.7,5.52-3.27,11.46-6.87,16.1-3.29,4.24-7.92,7.25-12.68,9.59s-11.04,4.48-16.26,1.7c-4.47-2.38-7.82-6.86-10.13-11.27-4.74-9.03-5.71-19.64-5.82-29.67-.07-6.05.09-12.18,1.68-18.05,1.37-5.04,3.89-9.66,7.47-13.47,7.32-7.8,18.22-11.44,28.77-9.44,2.76.52,5.45,1.39,7.98,2.62,2.16,1.05,4.07-2.18,1.89-3.24-10.94-5.31-24.26-4.82-34.55,1.81-4.66,3-8.63,7.09-11.46,11.86-3.2,5.39-4.65,11.51-5.22,17.7s-.45,12.18.02,18.2c.43,5.58,1.28,11.18,3.03,16.51,3.32,10.11,11.37,22.67,23.57,21.45,6.02-.6,11.94-3.54,16.9-6.91,5.02-3.42,8.99-7.82,11.43-13.41,2.62-6,4.5-12.52,6.04-18.88s2.4-13.44,1.81-20.28-2.22-13.53-4.07-20.12c-1.73-6.18-3.4-12.44-6-18.32-4.7-10.65-13.81-18.56-25.13-21.47s-24.55-.48-32.6,8.49c-8.49,9.46-10.05,22.65-9.35,34.84.2,3.4.54,6.8.89,10.19.11,1.01.79,1.88,1.88,1.88.93,0,1.98-.86,1.88-1.88h0Z"/>
      <path class="cls-1" d="M125.75,113.64c-1.26-1.96-3.48-2.86-5.77-2.67s-4.43,1.23-6.24,2.76c-3.74,3.16-5.59,8.44-4.07,13.17s6.12,8.14,11.25,7.49c2.58-.33,4.84-1.58,6.42-3.65,1.76-2.31,2.18-5.2,1.7-8.01s-2.04-6.02-3.77-8.44c-1.05-1.48-2.87-1.97-4.44-.92-.66.44-1.15,1.02-1.58,1.69-.29.46-.47.87-.92,1.06-.93.4-1.14,1.77-.67,2.57.56.96,1.63,1.07,2.57.67s1.5-1.18,2.01-1.98c.02-.03.57-.83.57-.82-.06-.1.49.21-.34-.04-.35-.29-.45-.32-.29-.1.08.12.15.25.23.37,1.09,1.78,2.13,3.63,2.71,5.65.5,1.75.61,3.67-.29,5.32-.79,1.45-2.07,2.43-3.67,2.82-3.17.77-6.29-1.01-7.61-3.94s-.61-6.43,1.46-8.88c1.12-1.32,2.57-2.44,4.15-2.86.46-.12.62-.16,1.03-.18s.78,0,.98.04c.69.14,1.05.35,1.33.79,1.3,2.02,4.55.14,3.24-1.89h0Z"/>
      <path class="cls-1" d="M113.14,120.72c-1.14,6.26,3.66,12.52,10.03,12.97.98.07,1.92-.91,1.88-1.88-.05-1.08-.82-1.8-1.88-1.88-.14,0-.3,0-.43-.04.47.12.04,0-.07-.02-.28-.06-.56-.13-.84-.21-.14-.04-.27-.09-.41-.14-.18-.07-.37-.17-.08-.03-.26-.13-.52-.25-.77-.39s-.49-.3-.73-.47c-.15-.1-.32-.26-.08-.05-.11-.09-.22-.18-.33-.28-.22-.19-.43-.39-.63-.6-.1-.11-.2-.21-.29-.32-.03-.04-.38-.47-.22-.26s-.12-.18-.16-.22c-.08-.12-.16-.24-.24-.36-.16-.25-.3-.5-.43-.75-.07-.13-.13-.26-.19-.39-.03-.07-.06-.13-.09-.2.09.2.1.24.05.11-.09-.27-.2-.54-.28-.82s-.14-.56-.2-.84c-.01-.07-.03-.14-.04-.21.03.24.04.29.02.14-.01-.14-.03-.29-.04-.43-.02-.29-.02-.57,0-.86,0-.14.02-.29.03-.43.02-.14,0-.1-.02.14.01-.1.03-.19.05-.29.18-.96-.26-2.07-1.31-2.31-.92-.21-2.12.28-2.31,1.31h0Z"/>
      <path class="cls-1" d="M231.4,90.38c5.28.95,10.01,4.46,12.1,9.47s1.4,11.9-2.41,16.11c-1.71,1.89-4.31,3.5-6.9,2.39-2.75-1.18-3.91-4.3-4.35-7.03s-.54-6.2.93-8.75c1.05-1.82,3.54-3.39,5.68-2.44,1.22.54,1.75,1.9,2.11,3.09.53,1.78.92,3.67.96,5.53.06,2.88-1.05,6.2-4.14,6.98-2.34.59-1.35,4.21,1,3.62,3.63-.92,6.1-4.27,6.69-7.87.36-2.21.17-4.41-.26-6.6-.37-1.89-.82-3.92-1.88-5.55-2.03-3.15-5.85-3.89-9.18-2.45-3.68,1.6-5.39,5.31-5.8,9.11s.14,8.64,2.37,11.97,5.68,5.1,9.51,4.29,6.73-3.97,8.41-7.27c1.78-3.49,2.53-7.52,2.05-11.41-1.03-8.37-7.55-15.32-15.88-16.83-2.36-.43-3.37,3.19-1,3.62h0Z"/>
      <path class="cls-1" d="M156.89,94.12c11.28,3.5,23.13,5.05,34.93,4.59,2.41-.09,2.42-3.84,0-3.75-11.5.45-22.95-1.05-33.93-4.46-2.31-.72-3.3,2.9-1,3.62h0Z"/>
      <path class="cls-1" d="M150.46,108.11c7.47-.87,14.94-1.75,22.41-2.62,3.67-.43,7.34-.85,11.01-1.29s7.04-.89,10.42-1.99c2.29-.74,1.31-4.36-1-3.62-3.21,1.04-6.54,1.51-9.88,1.91-3.68.43-7.37.86-11.05,1.29-7.31.85-14.61,1.71-21.92,2.56-1.01.12-1.88.78-1.88,1.88,0,.92.86,1.99,1.88,1.88h0Z"/>
      <path class="cls-1" d="M195.77,101.61c2.32-16.31,10.49-33.22,24.92-42.07,7-4.29,15.62-6.49,23.8-5.15,7.29,1.19,13.99,5.17,18.18,11.31,2,2.93,3.42,6.25,3.93,9.78.69,4.68-.27,9.44-1.24,14-1.74,8.15-3.72,16.37-7.07,24.03-3.18,7.27-7.6,14.22-13.94,19.12-5.68,4.39-12.79,7.33-20.03,7.33s-14.13-3.58-18.82-9.34c-5.36-6.58-7.53-15.17-8.08-23.49-.15-2.29-.19-4.58-.16-6.87.03-2.41-3.72-2.42-3.75,0-.13,9.55,1.05,19.45,5.81,27.9,3.99,7.07,10.47,12.89,18.5,14.8s16.1.09,23.1-3.66c7.47-4,13.26-10.3,17.45-17.61,4.48-7.82,7.17-16.53,9.25-25.25s4.68-18.57,1.03-27.46c-3.04-7.39-9.12-13.26-16.48-16.3-8.3-3.44-17.94-3-26.25.15-17.1,6.48-28.11,23.45-32.39,40.61-.59,2.37-1.05,4.76-1.39,7.18-.14,1.01.25,2,1.31,2.31.88.25,2.16-.31,2.31-1.31h0Z"/>
      <path class="cls-1" d="M198.38,91.93c6.94-5.96,15.78-8.95,24.42-11.46,4.81-1.4,9.73-3.03,14.75-3.51,4.34-.42,8.68.16,12.79,1.62,4.55,1.61,8.62,4.36,11.88,7.92,1.63,1.78,4.28-.87,2.65-2.65-6.34-6.91-15.68-10.95-25.07-10.76-5.47.11-10.77,1.72-15.99,3.21-4.68,1.33-9.35,2.72-13.85,4.58-5.15,2.12-9.99,4.78-14.23,8.42-1.83,1.57.83,4.22,2.65,2.65h0Z"/>
      <path class="cls-1" d="M264.32,111.15c4.54-1.01,9.07-2.02,13.61-3.04l6.8-1.52c2.05-.46,4.17-1.12,6.29-1.11,3.91.02,5.93,3.66,6.85,6.99,1.16,4.21,1.76,8.63,2.59,12.92.26,1.35,2.24,1.85,3.13.83,5.09-5.84,9.4-12.31,12.76-19.29,1.04-2.16-2.19-4.07-3.24-1.89-3.22,6.69-7.29,12.93-12.18,18.53l3.13.83c-.49-2.54-.98-5.08-1.46-7.62-.42-2.2-.78-4.43-1.51-6.55-1.3-3.81-4.01-7.55-8.22-8.31-2.43-.44-4.84.1-7.21.63s-4.86,1.08-7.29,1.63l-15.07,3.36c-2.35.53-1.36,4.14,1,3.62h0Z"/>
    </g>
  </g>
</svg>