<?xml version="1.0" encoding="UTF-8"?>
<svg id="Camada_2" data-name="Camada 2" xmlns="http://www.w3.org/2000/svg" viewBox="0 0 261.58 466.73">
  <defs>
    <style>
      .cls-1 {
        fill: #fff;
      }
    </style>
  </defs>
  <g id="Camada_1-2" data-name="Camada 1">
    <g>
      <path class="cls-1" d="M69.33,236.83c-1.19-3.17-2.13-6.42-2.8-9.73-.17-.84-.32-1.69-.46-2.54-.06-.38-.12-.76-.17-1.14-.02-.12-.03-.23-.05-.35,0,.03.04.29,0,.06-.03-.24-.06-.47-.09-.71-.2-1.68-.33-3.36-.39-5.05s-.07-3.26.04-4.89c.03-.39.06-.78.1-1.17.01-.12.08-.63.03-.25.03-.22.07-.44.1-.66.13-.77.31-1.53.53-2.27.11-.37.24-.74.38-1.1.04-.1.08-.21.12-.31-.01.03-.12.26-.03.07s.18-.39.27-.58c.32-.63.68-1.23,1.08-1.81.08-.12.17-.23.25-.35.2-.28,0-.01-.03.04.04-.06.09-.12.13-.17.23-.28.46-.56.7-.82.46-.5.94-.98,1.45-1.43.25-.23.51-.45.78-.67.13-.11.27-.21.4-.32.17-.13-.08.06-.09.07.1-.07.2-.15.29-.22.58-.43,1.17-.83,1.77-1.22,1.19-.76,2.42-1.46,3.66-2.13s2.58-1.33,3.92-1.9c-.31.13,0,0,.13-.05.17-.07.34-.14.51-.2.37-.14.73-.27,1.1-.4.71-.24,1.43-.46,2.16-.63.32-.08.65-.15.97-.21.17-.03.35-.06.52-.09.06-.01.39-.06.12-.02s.07,0,.12-.01c.71-.08,1.42-.12,2.13-.09.1,0,.97.13,1.01.08,0,0-.37-.06-.15-.02.07.01.14.02.21.04.19.03.38.07.56.12.33.08.65.17.97.28.09.03.18.07.27.1.04.01.27.1.04.01s0,0,.04.02c.11.05.22.1.33.16.29.14.57.3.84.47.15.1.3.2.44.3.05.03.3.24.11.08s.08.07.11.09c.57.48,1.08,1.02,1.55,1.59.05.06.1.12.15.18.18.21-.17-.24-.01-.02.11.15.21.29.32.44.21.3.41.6.6.9.41.64.79,1.29,1.16,1.95.79,1.4,1.53,2.83,2.24,4.28.35.71.68,1.43,1,2.15.16.36.32.72.48,1.08.04.1.09.21.13.31,0,.02.12.28.04.09s.03.07.04.09c.05.13.11.26.16.39,1.23,2.97,2.28,6.02,3.15,9.12s1.56,6.25,2.06,9.42c.06.39.12.78.18,1.17.03.2.06.39.08.59,0-.03-.04-.31-.01-.08.02.14.04.28.05.42.1.78.18,1.57.26,2.36.15,1.6.26,3.21.32,4.81s.06,3.13,0,4.69c-.04.8-.09,1.59-.18,2.38-.02.19-.04.38-.06.57,0,.08-.02.16-.03.24-.03.29.05-.31,0-.01-.06.4-.12.81-.19,1.21-.27,1.49-.64,2.97-1.16,4.4-.06.18-.13.35-.2.53-.04.11-.23.56-.08.22-.16.37-.33.74-.51,1.11-.33.66-.69,1.31-1.1,1.93-.17.26-.35.52-.53.77-.04.05-.22.3-.07.1.14-.19,0,0-.03.04-.12.15-.24.3-.37.45-.45.53-.94,1.04-1.45,1.51-.23.21-.47.42-.71.62-.05.04-.46.36-.26.21s-.05.03-.1.07c-.08.06-.15.11-.23.17-.56.4-1.15.76-1.76,1.09-.27.14-.55.28-.83.4-.44.2.19-.06-.13.06-.18.07-.35.14-.53.2-.64.22-1.29.4-1.96.52-.14.03-.35.02-.48.08,0,0,.37-.04.16-.02-.07,0-.14.02-.21.02-.35.03-.7.05-1.05.05-.33,0-.65-.01-.98-.04-.16-.01-.33-.02-.49-.05,0,0,.37.06.15.02-.11-.02-.23-.04-.35-.06-.62-.12-1.24-.29-1.84-.5-.15-.05-.3-.11-.44-.17-.45-.18.2.1-.11-.04s-.61-.28-.91-.44c-1.16-.6-2.25-1.32-3.3-2.09-2.15-1.56-4.18-3.3-6.45-4.7-1.26-.78-2.6-1.42-3.99-1.92-1.48-.53-3.01-.88-4.5-1.34-.37-.11-.73-.23-1.09-.36-.18-.06-.36-.13-.54-.2-.08-.03-.15-.06-.23-.09.25.1.07.03-.07-.04-.32-.15-.64-.31-.95-.49-.13-.08-.27-.16-.39-.24-.07-.05-.15-.1-.22-.15-.04-.03-.27-.22-.08-.05.21.18-.17-.15-.22-.2-.12-.11-.23-.22-.34-.33s-.22-.23-.32-.35c-.04-.05-.09-.1-.13-.15-.03-.03-.06-.07-.09-.1-.09-.11-.06-.07.09.11.03-.11-.41-.61-.48-.73-.08-.13-.15-.27-.22-.41-.04-.07-.07-.18-.11-.24.06.09.12.32.05.09-.09-.29-.17-.57-.24-.86-.08-.33.01.42,0-.06,0-.14-.01-.29-.01-.43,0-.06.06-.34.03-.37.1.11-.08.4,0,.14.02-.06.03-.12.04-.18,0-.03.09-.41.13-.42.02,0-.22.43-.04.1.04-.08.08-.15.12-.23.49-.86.23-2.1-.68-2.59s-2.07-.24-2.59.68c-1.66,2.95-.45,6.46,1.82,8.72,2.42,2.41,5.85,3.06,9,4,.37.11.73.23,1.1.35.18.06.36.13.54.2.1.04.2.08.31.12.36.14-.18-.08.02,0,.63.3,1.24.6,1.84.95,1.19.69,2.31,1.49,3.41,2.31,2.21,1.66,4.36,3.47,6.82,4.76,2.81,1.47,5.82,2.1,8.97,1.66s5.81-1.92,8.13-3.87c5.16-4.33,7.15-11.07,7.61-17.57.23-3.29.1-6.62-.18-9.9-.3-3.48-.82-6.96-1.54-10.38-1.42-6.7-3.69-13.22-6.69-19.38-1.44-2.96-2.97-6-5.1-8.54-2.19-2.61-5.24-4.08-8.62-4.29-3.12-.19-6.29.69-9.15,1.87s-5.65,2.62-8.27,4.29-5.1,3.72-6.97,6.29c-2.03,2.8-2.91,6.15-3.23,9.55s-.12,6.93.27,10.35c.41,3.65,1.1,7.26,2.1,10.78.47,1.65,1.01,3.29,1.62,4.9.35.92,1.29,1.65,2.33,1.32.9-.29,1.69-1.33,1.32-2.33h0Z"/>
      <path class="cls-1" d="M156.08,191.23c-.38-3.2-.45-6.42-.21-9.63.06-.81.14-1.62.24-2.42.01-.1.07-.53.03-.21.03-.18.05-.36.08-.54.06-.42.13-.83.2-1.25.27-1.51.6-3.02,1.01-4.49.17-.6.36-1.2.57-1.78.09-.26.19-.52.29-.78.02-.04.21-.4.18-.45,0,0-.14.33-.05.13.04-.08.07-.17.11-.25.51-1.13,1.13-2.18,1.85-3.2.12-.17-.08.11-.09.12.04-.03.09-.12.13-.16.1-.12.2-.24.3-.36.19-.22.39-.43.59-.63s.42-.39.64-.58c.05-.04.17-.12.2-.17,0,0-.29.21-.12.09.13-.09.25-.18.38-.27.24-.16.49-.31.74-.45.12-.06.24-.13.36-.18.08-.04.16-.07.24-.11.23-.11-.32.12-.06.02.63-.22,1.25-.41,1.9-.52.37-.06-.3.02.08,0,.15-.01.29-.03.44-.03.34-.02.68-.02,1.02,0,.17,0,.34.02.51.04.07,0,.52.07.26.03s.27.05.33.06c.17.03.34.07.51.11.66.15,1.3.36,1.92.61.34.13-.23-.11.1.04.16.07.32.15.48.23.29.14.58.3.86.46s.56.34.83.52c.15.1.29.2.43.3.06.04.12.09.18.13.22.16-.24-.2-.03-.02.55.45,1.09.92,1.59,1.42s.99,1.03,1.44,1.58c.1.12.2.25.3.37.05.06.1.12.15.19.02.02.18.23.05.06-.14-.19.06.08.09.13.05.06.1.13.14.19.11.15.22.3.33.45,1.68,2.35,3.09,4.89,4.53,7.4s3,5.25,4.41,7.92,2.75,5.37,3.94,8.14c.07.15.13.31.2.46-.15-.34.07.16.1.25.15.36.3.73.44,1.09.27.67.53,1.35.77,2.04.51,1.41.98,2.84,1.39,4.28s.75,2.84,1.03,4.28c.15.73.27,1.47.38,2.21.02.16.05.33.07.49.04.29-.04-.3,0,0,0,.08.02.17.03.25.05.39.09.77.13,1.16.13,1.37.22,2.76.17,4.13-.01.32-.03.63-.06.95-.01.15-.03.29-.04.44-.04.41.01-.07.01-.07.01,0-.04.26-.04.29-.11.64-.26,1.27-.47,1.87-.05.13-.1.26-.15.4-.08.2.05-.12.05-.13,0,.07-.09.2-.12.25-.13.27-.28.54-.45.79-.04.06-.2.38-.28.4,0,0,.23-.27.08-.11-.05.05-.09.11-.14.16-.22.25-.46.47-.72.69-.27.23.23-.15-.06.05-.14.09-.27.18-.41.27-.28.17-.57.31-.86.45-.2.1.13-.06.13-.05,0,0-.18.07-.2.07-.15.06-.31.11-.47.16-.32.1-.64.18-.96.25-.14.03-.28.06-.42.08-.19.03-.4.08-.07.02-.33.06-.68.07-1.02.09-.66.04-1.32.04-1.98.01s-1.26-.07-1.88-.14c-.26-.03-.52-.06-.78-.09-.34-.04.37.05-.09-.01-.15-.02-.31-.05-.46-.07-1.19-.19-2.37-.45-3.53-.77-.58-.16-1.15-.34-1.72-.54-.25-.09-.5-.18-.75-.28-.14-.06-.29-.11-.43-.17-.05-.02-.26-.1-.02,0s-.03-.01-.08-.03c-1.08-.47-2.12-1.02-3.11-1.65-.23-.15-.47-.31-.69-.47-.1-.07-.21-.15-.31-.22-.05-.04-.1-.08-.15-.11-.21-.15.28.22.08.06-.44-.36-.87-.73-1.28-1.13s-.78-.81-1.14-1.25c-.02-.03-.11-.11-.12-.15,0,0,.22.31.1.13-.08-.12-.17-.23-.26-.35-.17-.24-.33-.48-.48-.73-.29-.47-.54-.96-.77-1.45-.14-.31.13.33-.03-.08-.05-.12-.09-.24-.14-.36-.13-.36-.24-.72-.34-1.09s-.18-.72-.25-1.09c-.03-.17-.06-.34-.09-.51-.02-.11-.04-.23-.05-.34-.03-.17-.02-.2,0-.01-.08-.75-.15-1.49-.18-2.25-.08-1.53-.08-3.06-.17-4.59-.18-2.97-.68-6.08-2.34-8.61s-4.16-4.06-7.07-4.32c-1.35-.12-2.73.21-3.92.86-.87.48-1.22,1.74-.68,2.59s1.66,1.19,2.59.68c.07-.04.49-.28.24-.13-.23.13.11-.04.19-.06.14-.05.28-.08.43-.12.06-.01.13-.02.19-.04.23-.06-.48.04-.06,0,.28-.02.55-.03.83-.01.08,0,.49,0,.2,0-.28,0-.02,0,.07.02s.17.03.25.05c.28.06.55.14.82.24.07.02.18.09.25.09-.01,0-.33-.15-.15-.06.16.08.32.15.48.24.25.14.5.29.74.46.05.04.11.08.16.12.17.12-.12-.08-.12-.09.01.08.34.29.4.35.21.2.41.4.6.62.31.36-.12-.19.07.09.12.17.24.34.35.52.18.28.34.58.49.88.07.14.13.28.2.42.12.25-.1-.29-.01-.03.03.1.07.19.11.29.25.68.44,1.38.58,2.09.07.33.12.67.18,1,.06.38-.03-.26.02.12.02.21.05.42.07.63.31,3.21.1,6.44.69,9.63.51,2.74,1.76,5.25,3.58,7.35,3.28,3.79,8.26,5.95,13.09,6.95,5.32,1.1,12.25,1.64,15.94-3.19,1.75-2.29,2.18-5.36,2.16-8.16-.03-3.11-.48-6.24-1.14-9.27-1.33-6.11-3.76-11.95-6.55-17.53-1.39-2.78-2.88-5.51-4.42-8.22s-2.97-5.28-4.57-7.84c-3.15-5.02-7.51-9.92-13.7-10.8-2.97-.42-6.02.07-8.48,1.87-2.21,1.61-3.82,3.85-4.93,6.33-1.21,2.71-1.95,5.57-2.46,8.48-.59,3.36-.89,6.78-.82,10.2.03,1.62.15,3.24.34,4.86.11.98.79,1.94,1.89,1.89.93-.04,2.01-.84,1.89-1.89h0Z"/>
      <path class="cls-1" d="M152.71,238.05l3.18,3.45c.78.85,2.45.7,2.97-.38.67-1.37,1.19-2.93,1.03-4.48-.09-.83-.28-1.63-.72-2.36-.42-.68-.97-1.22-1.62-1.67-1.27-.87-2.98-1-4.35-.29-1.21.63-1.83,1.99-1.9,3.3-.09,1.59.89,3.08,2.43,3.53.95.28,2.1-.34,2.33-1.32s-.31-2.02-1.32-2.33c-.06-.02-.12-.04-.18-.06l.45.19c-.07-.03-.14-.09-.21-.12.3.24.38.3.24.19-.03-.03-.06-.05-.08-.08-.12-.14-.06-.05.18.25-.02-.03-.04-.07-.06-.1-.04-.07-.07-.14-.11-.21l.19.45c-.06-.15-.1-.31-.12-.48l.07.5c-.02-.19-.02-.38,0-.57l-.07.5c.03-.22.08-.42.17-.62l-.19.45c.04-.09.08-.17.13-.26.03-.04.07-.09.09-.13-.01.03-.36.4-.15.21.03-.03.06-.06.09-.09.2-.2-.18.15-.21.16.09-.02.19-.12.28-.15l-.45.19c.18-.07.37-.12.56-.15l-.5.07c.19-.02.38-.02.57,0l-.5-.07c.22.03.43.09.64.18l-.45-.19c.18.08.36.17.52.28s.21.25-.11-.09c.07.07.15.13.22.2.04.04.21.17.2.22,0-.06-.3-.43-.09-.11.11.17.2.34.28.53l-.19-.45c.11.28.19.58.23.88l-.07-.5c.05.42.05.84,0,1.27l.07-.5c-.09.65-.28,1.27-.53,1.87l.19-.45c-.07.17-.15.33-.22.49l2.97-.38-3.18-3.45c-.67-.73-2-.73-2.67,0-.72.78-.72,1.9,0,2.67h0Z"/>
      <path class="cls-1" d="M142,259.14c-.43,4.94-.29,10.16,1.85,14.72,1.09,2.32,2.85,4.32,5.03,5.67,2.61,1.62,5.74,2.32,8.7,2.99,2.99.68,6.08,1.17,9.15.83,2.74-.3,5.36-1.06,7.81-2.32,4.72-2.42,8.47-6.7,9.87-11.85s.63-10.85-2.42-15.17c-.41-.58-.86-1.15-1.33-1.68-.66-.74-2.01-.72-2.67,0-.73.79-.7,1.88,0,2.67.18.21.36.42.54.63.23.28-.17-.24.04.06.09.13.19.26.28.39.32.47.62.97.89,1.48.13.24.25.49.36.74.03.06.06.13.08.19.09.19-.06-.12-.06-.13-.01.11.14.34.18.45.2.54.38,1.09.52,1.64s.25,1.13.35,1.7c.04.22-.02-.15-.02-.16,0,.07.02.14.03.21.02.14.03.28.04.41.03.3.05.6.06.9.02.6.02,1.21-.02,1.81-.02.28-.05.55-.07.83-.04.37.05-.32,0,.05-.02.16-.05.32-.08.48-.2,1.15-.54,2.25-.95,3.34-.08.2.05-.13.06-.13-.02,0-.07.17-.08.19-.06.13-.11.25-.17.38-.13.27-.27.54-.41.8-.28.51-.59,1.01-.93,1.49-.08.11-.16.23-.25.34-.02.03-.09.15-.13.17,0,0,.22-.27.08-.11-.19.23-.38.47-.58.7-.39.44-.8.86-1.22,1.25-.21.19-.42.38-.63.56-.11.09-.22.18-.32.27-.02.02-.13.13-.16.13.06,0,.28-.21.05-.04-.47.35-.95.68-1.45.99s-1.01.59-1.54.86c-.25.13-.51.25-.77.36-.06.03-.13.06-.19.09-.2.09.13-.05.13-.05-.02.06-.39.16-.46.18-1.1.42-2.23.75-3.39.97-.25.05-.68.03-.91.15,0,0,.37-.04.15-.02-.07,0-.14.02-.21.02-.16.02-.33.03-.49.05-.59.05-1.17.07-1.76.07-.74,0-1.47-.05-2.21-.13-.18-.02-.36-.04-.54-.06-.22-.03.02,0,.06,0-.09-.01-.18-.03-.27-.04-.39-.06-.77-.12-1.15-.2-1.46-.27-2.9-.62-4.33-.98-.66-.17-1.32-.35-1.97-.55-.31-.1-.62-.2-.93-.31-.15-.05-.31-.11-.46-.17-.11-.04-.55-.23-.23-.09-.62-.28-1.22-.58-1.8-.94-.14-.09-.27-.18-.41-.27-.06-.04-.44-.3-.22-.15s-.11-.09-.17-.14c-.12-.1-.23-.2-.34-.3-.4-.36-.77-.75-1.11-1.16-.04-.04-.08-.11-.12-.15,0,0,.22.3.1.13-.07-.1-.15-.2-.22-.31-.16-.23-.31-.46-.45-.69-.28-.46-.52-.93-.74-1.41-.03-.07-.18-.45-.08-.19s-.05-.13-.07-.19c-.1-.26-.2-.53-.28-.8-.35-1.08-.59-2.19-.76-3.31,0-.06-.01-.14-.03-.2,0,0,.05.38.02.17-.02-.14-.03-.27-.05-.41-.03-.29-.06-.59-.08-.88-.05-.57-.08-1.14-.09-1.72-.03-1.14,0-2.29.06-3.43.03-.56.07-1.12.12-1.68.09-.99-.93-1.93-1.89-1.89-1.1.05-1.8.83-1.89,1.89h0Z"/>
      <path class="cls-1" d="M42.29,270c-.38-6.97-1-13.93-1.89-20.86s-2.05-14.03-3.46-20.98c-.78-3.84-1.64-7.67-2.58-11.47-.24-.96-1.37-1.63-2.33-1.32-1.03.33-1.53,1.29-1.32,2.33,2.3,11.15,6.46,21.79,11.1,32.15,1.3,2.91,2.65,5.8,4.01,8.69.34.72,1.39,1.11,2.13.87s1.47-.98,1.39-1.82c-.46-4.76-.92-9.52-1.38-14.27-.21-2.21-.35-4.44-.74-6.62-.36-2.01-1.09-3.93-2.43-5.49-.69-.8-1.59-1.4-2.44-2.03-.09-.07-.18-.13-.27-.2-.11-.08-.07-.05.12.09-.05-.04-.1-.08-.15-.12-.18-.15-.36-.31-.53-.48-.06-.06-.11-.13-.17-.19-.28-.28.17.3-.02-.01-.05-.09-.11-.18-.17-.27-.24-.42.09.29-.05-.07-.34-.93-1.3-1.65-2.33-1.32-.91.29-1.68,1.33-1.32,2.33s.94,1.86,1.75,2.56c.39.34.8.64,1.21.95.16.12.32.24.49.36.09.07.18.13.27.2.31.23-.28-.24.04.03s.6.55.88.85c.17.18.07-.02-.03-.05.04.01.13.18.16.23.15.21.28.43.4.65.01.02.3.55.28.57,0,0-.13-.35-.03-.06.04.11.08.22.12.33.15.43.27.87.38,1.31s.18.86.25,1.29c.02.12.04.24.05.36.05.3-.05-.47,0,0,.03.24.06.48.08.72.12,1.11.22,2.23.33,3.35.23,2.35.45,4.7.68,7.04.26,2.66.52,5.32.77,7.98l3.52-.95c-1.21-2.56-2.4-5.13-3.57-7.72-.56-1.24-1.11-2.48-1.65-3.73-.28-.65-.56-1.3-.84-1.95-.07-.16-.14-.33-.21-.49-.02-.05-.14-.33-.02-.04-.16-.38-.32-.76-.48-1.14-2.14-5.17-4.09-10.42-5.68-15.79-.88-2.99-1.65-6.02-2.28-9.07l-3.65,1c1.66,6.72,3.07,13.5,4.24,20.32.29,1.72.57,3.44.83,5.17.13.85.25,1.7.37,2.54.06.42.12.85.18,1.27.03.18.05.36.07.55,0,.05.06.43.03.2-.03-.19.02.17.03.2.45,3.43.85,6.87,1.17,10.31.37,3.9.66,7.81.87,11.73.05.99.83,1.94,1.89,1.89.98-.04,1.95-.83,1.89-1.89h0Z"/>
      <path class="cls-1" d="M211.94,175.61c-3.9-8.66-7.81-17.33-11.71-25.99-1.11-2.47-2.22-4.93-3.33-7.4-.33-.72-1.4-1.1-2.13-.87s-1.44.97-1.39,1.82c.59,10.08,1.84,20.12,3.75,30.03.53,2.77,1.12,5.52,1.75,8.27.21.92,1.18,1.47,2.07,1.35.99-.13,1.54-.91,1.64-1.86,1.04-10.35.26-20.88-2.23-30.97-.7-2.82-1.53-5.6-2.5-8.34-.32-.89-1.1-1.48-2.07-1.35s-1.55.91-1.64,1.86c-.95,9.64-.66,19.36.76,28.94.4,2.67.89,5.33,1.47,7.97.2.92,1.19,1.47,2.07,1.35s1.72-.92,1.64-1.86c-.98-10.81-3.16-21.51-6.57-31.82-.95-2.86-1.99-5.69-3.11-8.48-.3-.75-.93-1.43-1.82-1.39-.77.03-1.68.55-1.82,1.39-1.3,7.69.39,15.35,2.67,22.69,2.3,7.41,4.83,14.75,7.26,22.11.61,1.85,1.22,3.7,1.83,5.55.52,1.57,1.08,3.13,2.08,4.47,1.07,1.43,2.4,2.59,4.24,2.79s3.42-1.01,4.31-2.5c.37-.62.63-1.3.97-1.93.14-.27.31-.52.48-.77.2-.3-.07.07-.07.08,0-.03.13-.16.16-.19.12-.14.25-.28.39-.41.1-.1.21-.2.32-.29,0,0,.17-.16.19-.16,0,0-.38.27-.09.07.28-.19.55-.38.85-.54s.57-.29.86-.43c.19-.09-.15.06-.15.06.08-.02.16-.07.24-.1.18-.07.37-.14.55-.2.65-.22,1.32-.39,2-.53.33-.07.66-.13,1-.19.18-.03.36-.06.53-.08.07,0,.13-.02.2-.03.45-.07-.3.04-.04,0,1.73-.21,3.47-.36,5.2-.52,7.77-.74,15.53-1.48,23.3-2.22.97-.09,1.93-.18,2.9-.28s1.94-.8,1.89-1.89c-.04-.94-.84-1.99-1.89-1.89-7.61.73-15.22,1.45-22.83,2.18-3.49.33-7.03.52-10.48,1.12-2.76.48-5.72,1.47-7.62,3.65-.5.58-.95,1.21-1.29,1.89-.31.62-.58,1.27-.95,1.86-.05.07-.1.14-.15.22-.12.17.09-.13.1-.13-.02,0-.35.34-.36.36.01-.03.3-.19.12-.11-.08.04-.16.08-.23.13-.2.13.34-.06.11-.05-.08,0-.2.06-.28.08-.06.02-.27.06.03,0,.35-.07,0-.03-.02-.02-.04.02-.12-.02-.16,0,.25-.09.39.08.18.02-.07-.02-.14-.04-.21-.06-.22-.05,0-.12.14.07-.07-.09-.31-.16-.41-.22-.03-.02-.2-.13-.2-.13,0-.01.29.25.14.11-.12-.12-.25-.22-.37-.34-.11-.11-.21-.22-.31-.33-.03-.03-.15-.2-.17-.2.05,0,.22.3.05.06-.42-.59-.75-1.21-1.07-1.86-.12-.24.12.32.03.08-.02-.06-.05-.12-.07-.19-.06-.16-.12-.33-.18-.49-.16-.48-.32-.96-.47-1.43-.3-.9-.59-1.79-.89-2.69-2.39-7.26-4.81-14.51-7.18-21.77-1.14-3.5-2.23-7.02-2.98-10.63-.18-.88-.35-1.76-.49-2.65-.04-.24-.07-.47-.11-.71,0-.02-.04-.31-.01-.1.03.23-.02-.14-.02-.19-.06-.47-.11-.94-.15-1.42-.16-1.8-.19-3.61-.06-5.41.03-.41.07-.83.12-1.24.01-.12.03-.24.04-.35-.01.08-.05.35,0-.03.04-.24.07-.47.11-.71h-3.65c3.98,9.85,6.84,20.16,8.49,30.66.12.76.23,1.52.34,2.28.02.12.03.23.05.35.02.12.03.23.05.35-.03-.21-.03-.2,0,.02.05.35.09.7.13,1.05.19,1.52.35,3.05.49,4.58l3.71-.5c-.51-2.31-.95-4.64-1.32-6.98-.09-.57-.18-1.14-.26-1.71-.02-.15-.04-.3-.06-.45-.05-.38-.02-.12,0-.04-.05-.36-.09-.72-.14-1.08-.14-1.15-.27-2.29-.37-3.44-.44-4.72-.59-9.46-.45-14.2.08-2.67.25-5.34.51-8l-3.71.5c1.7,4.81,2.99,9.76,3.84,14.79.1.61.2,1.22.29,1.82.05.32.09.64.14.96.05.38.01.1,0,.02.03.23.06.47.09.7.16,1.25.28,2.51.39,3.76.21,2.54.31,5.09.3,7.64-.01,2.87-.16,5.74-.45,8.6l3.71-.5c-1.12-4.83-2.08-9.71-2.88-14.6-.2-1.21-.38-2.42-.56-3.63-.09-.61-.17-1.21-.26-1.82-.02-.12-.03-.24-.05-.36-.08-.58.03.22-.02-.14s-.09-.67-.13-1c-.31-2.43-.59-4.87-.82-7.31-.27-2.81-.48-5.62-.65-8.43l-3.52.95c3.9,8.66,7.81,17.33,11.71,25.99,1.11,2.47,2.22,4.93,3.33,7.4.41.9,1.79,1.19,2.59.68.93-.6,1.11-1.62.68-2.59h0Z"/>
      <path class="cls-1" d="M145.21,304.31c4.55,20.39,8.05,41.03,10.11,61.83,1.03,10.37,1.66,20.77,1.99,31.18.33,10.64.49,21.28.98,31.91.55,11.89,1.38,23.76,2.5,35.61.1,1.02.8,1.89,1.89,1.89.95,0,1.99-.87,1.89-1.89-1-10.58-1.77-21.18-2.31-31.79-.54-10.63-.77-21.26-1.06-31.89-.29-10.59-.82-21.17-1.79-31.73-.96-10.5-2.29-20.97-3.92-31.38s-3.57-20.66-5.79-30.91c-.28-1.28-.56-2.56-.84-3.84-.22-1-1.38-1.58-2.33-1.32-1.03.28-1.54,1.33-1.32,2.33h0Z"/>
      <path class="cls-1" d="M189.24,328.08c1.89,8.87,3.92,17.71,6.1,26.51s4.49,17.57,6.95,26.3,5.03,17.34,7.75,25.94c2.7,8.54,5.52,17.06,8.52,25.5,2.71,7.63,5.75,15.33,10.64,21.86.64.86,1.31,1.7,2,2.52s1.99.68,2.67,0c.77-.77.66-1.89,0-2.67-2.43-2.87-4.55-6.27-6.31-9.75-1.81-3.57-3.19-7.02-4.57-10.79-3.02-8.25-5.76-16.6-8.44-24.97-2.74-8.56-5.34-17.16-7.81-25.8-2.48-8.68-4.81-17.4-7.01-26.15-2.19-8.71-4.23-17.46-6.14-26.24-.24-1.09-.47-2.18-.7-3.26-.21-1-1.38-1.58-2.33-1.32-1.03.28-1.53,1.32-1.32,2.33h0Z"/>
      <path class="cls-1" d="M166.85,341.14c-3.53.23-7.07.14-10.59-.19-.85-.08-1.7-.17-2.55-.28-.2-.03-.41-.05-.61-.08-.12-.02-.23-.03-.35-.05.08.01.35.05-.02,0-.44-.06-.88-.12-1.31-.19-1.76-.27-3.5-.57-5.25-.91-6.96-1.33-13.84-3.08-20.81-4.37-.99-.18-1.99-.36-2.98-.52s-2.08-.42-3.11-.44c-1.44-.04-2.89.98-2.82,2.54.08,1.7,1.85,2.9,3.41,2.02.86-.49,1.23-1.74.68-2.59s-1.66-1.2-2.59-.68l.29-.13h1c.2.03.57.35.7.5.47.55.24.85-.04,1.38-.2.37-.19.6-.53.7-.04.01-.36,0-.17.04.15.03.52.01.15,0,.2,0,.41.06.62.09.79.12,1.58.25,2.37.38,1.61.27,3.22.58,4.82.9,3.19.64,6.36,1.35,9.53,2.05,6.38,1.41,12.8,2.76,19.31,3.39,3.61.35,7.24.46,10.85.22.98-.07,1.94-.82,1.89-1.89-.04-.97-.83-1.96-1.89-1.89h0Z"/>
      <path class="cls-1" d="M146.11,340.35c-11.02-.6-22.13-1.19-33.12.2-5.56.7-11.01,1.89-16.31,3.74-5.02,1.75-9.91,3.89-14.99,5.45-1.39.42-2.79.81-4.21,1.12-.7.15-1.4.29-2.11.4-.16.03-.32.05-.49.08-.11.02-.22.03-.32.05.23-.03.24-.03.02,0-.32.04-.65.08-.97.11-1.4.13-2.81.16-4.22.08-.38-.02-.76-.06-1.14-.1-.16-.02-.33-.04-.49-.06.44.06-.05-.01-.15-.03-.77-.12-1.52-.28-2.27-.48-.96-.25-2.1.32-2.33,1.32s.3,2.06,1.32,2.33c10.75,2.81,21.22-2.13,31.1-5.79,5.14-1.9,10.37-3.35,15.79-4.17.29-.04.58-.09.87-.13.17-.02.35-.05.52-.07-.43.06.15-.02.2-.02.7-.09,1.4-.17,2.1-.24,1.4-.15,2.81-.27,4.22-.36,2.74-.18,5.49-.26,8.23-.27,6.25-.02,12.5.31,18.74.65.99.05,1.93-.91,1.89-1.89-.05-1.07-.83-1.83-1.89-1.89h0Z"/>
      <path class="cls-1" d="M197.99,316.67c1.01-.54,2.04-1.04,3.08-1.5.22-.1.45-.19.67-.29.29-.13-.41.17.07-.03.1-.04.2-.08.3-.12.55-.22,1.1-.44,1.66-.65,2.08-.77,4.2-1.41,6.35-1.96s4.24-.98,6.38-1.35c1.1-.19,2.21-.37,3.32-.54.52-.08,1.03-.15,1.55-.22.16-.02.33-.04.49-.07-.07,0-.38.05-.01,0,.33-.04.65-.09.98-.13,4.44-.56,8.89-.99,13.33-1.5s8.74-1,12.98-2.09c4.44-1.14,8.9-3.11,11.9-6.69.63-.76.8-1.94,0-2.67-.7-.64-2-.81-2.67,0-.63.75-1.32,1.44-2.09,2.05-.12.1-.23.3,0,.01-.04.06-.16.12-.23.17-.19.14-.38.28-.58.41-.43.29-.88.56-1.34.82-.4.22-.8.43-1.21.62-.2.09-.39.18-.59.27-.45.2.38-.15-.08.04-.13.05-.27.11-.4.16-.91.35-1.84.66-2.77.92-1.93.55-3.91.93-5.89,1.25-1.08.17-2.17.33-3.25.48-.11.01-.22.03-.33.04.46-.06-.09.01-.15.02-.25.03-.49.06-.74.1-.57.07-1.15.14-1.72.21-8.94,1.07-17.99,1.68-26.77,3.77-4.9,1.17-9.69,2.84-14.14,5.2-.87.47-1.22,1.75-.68,2.59.57.89,1.65,1.18,2.59.68h0Z"/>
      <path class="cls-1" d="M191.53,323.46c.27.32.54.64.8.97.03.04.25.32.11.14-.13-.16.04.06.06.07.15.2.3.4.45.61.51.7.99,1.42,1.46,2.15.92,1.44,1.76,2.93,2.58,4.43,1.64,3.03,3.18,6.12,4.87,9.13,3.36,5.98,7.08,11.75,11.15,17.27,4.15,5.63,8.62,11.01,13.43,16.09,2.39,2.53,5.56,6,9.38,4.12,1.54-.76,2.42-2.41,2.92-3.97s.78-3.39.99-5.09c.43-3.5.16-7.29-1.63-10.41-1.54-2.67-4.25-4.99-7.36-5.5-.8-.13-1.58-.2-2.39-.1-.98.11-1.94.79-1.89,1.89.04.93.84,2.01,1.89,1.89.32-.04.63-.06.95-.05.16,0,.31.01.47.03.08,0,.35.08.08,0s.02,0,.08.02c.31.06.61.14.91.23.09.03.34.17.44.16-.16.02-.29-.14-.08-.03.1.05.2.1.3.15.28.14.56.3.82.48.13.09.26.18.39.27.04.03.22.17.03.02-.22-.18.09.08.13.11.25.21.48.43.71.66.11.12.22.24.33.36.05.05.09.1.14.16,0,.01.3.35.12.13-.15-.18.13.18.18.26.09.13.18.27.27.41.19.29.36.6.51.91.03.05.25.52.14.28s.09.24.12.32c.15.42.28.85.39,1.29.09.38.17.77.23,1.15s-.02-.21.02.16c.03.25.05.5.07.76.05.82.05,1.64,0,2.46-.02.4-.06.8-.1,1.19-.01.11-.03.23-.04.34,0,.03-.04.31-.01.09s0,.06-.01.09c-.02.14-.04.28-.07.42-.13.8-.28,1.6-.47,2.39-.07.3-.15.6-.24.9-.05.15-.09.3-.15.45-.03.08-.06.17-.09.25-.08.24.2-.41,0-.02-.13.27-.28.54-.45.79-.18.27.26-.26-.06.06-.04.04-.09.09-.13.13-.07.07-.33.19-.09.09.21-.08.06-.04-.01,0-.07.04-.15.08-.22.13s-.23.07,0,0c.28-.07-.04,0-.11.02-.01,0-.21.05-.21.05-.01-.06.39-.01.08-.02-.07,0-.14,0-.21,0-.35-.01-.1.07,0,0-.08.05-.39-.1-.49-.13-.05-.02-.16-.04-.21-.08.23.2.17.08.04,0-.34-.2-.66-.39-.98-.61-.23-.16.22.19,0,0-.06-.05-.12-.1-.18-.15-.14-.12-.28-.24-.41-.37-.29-.27-.57-.55-.84-.84-.58-.6-1.16-1.21-1.74-1.82-2.22-2.36-4.38-4.8-6.46-7.29-1.06-1.27-2.1-2.55-3.12-3.85-.24-.31-.48-.62-.72-.93-.13-.17.02.03.04.05-.07-.09-.14-.18-.2-.27-.14-.18-.27-.36-.41-.53-.51-.67-1.01-1.34-1.51-2.02-3.87-5.25-7.43-10.72-10.66-16.38-1.62-2.85-3.12-5.76-4.65-8.66s-3.13-5.76-5.09-8.39c-.55-.73-1.11-1.45-1.7-2.15-.64-.76-2.02-.71-2.67,0-.74.81-.69,1.87,0,2.67h0Z"/>
      <path class="cls-1" d="M158.43,366.89c2.85-.48,5.32-.84,7.92-1.15s5.4-.58,8.1-.78c5.47-.4,10.97-.55,16.45-.44,3.08.06,6.16.2,9.24.42.99.07,1.93-.92,1.89-1.89-.05-1.08-.83-1.81-1.89-1.89-11.01-.79-22.09-.55-33.06.72-3.23.37-6.45.83-9.66,1.37-.98.16-1.61,1.42-1.32,2.33.34,1.06,1.28,1.5,2.33,1.32h0Z"/>
      <path class="cls-1" d="M178.67,364.69c.98,4.83,2.88,9.38,4.67,13.95.9,2.28,1.78,4.58,2.49,6.93.36,1.17.68,2.36.95,3.56.13.57.24,1.14.34,1.71.05.29.1.57.14.86.02.11.03.23.05.34-.06-.43.03.29.04.36.15,1.32.21,2.64.16,3.96-.02.69-.08,1.37-.16,2.06.04-.36,0-.06,0,0-.04.23-.07.45-.11.68-.06.34-.14.68-.21,1.02-.22.96.3,2.09,1.32,2.33.97.22,2.09-.29,2.33-1.32,1.18-5.08.57-10.34-.81-15.31s-3.43-9.39-5.15-14.09c-.97-2.63-1.82-5.3-2.38-8.05-.2-.97-1.4-1.62-2.33-1.32-1.03.33-1.53,1.29-1.32,2.33h0Z"/>
      <path class="cls-1" d="M159.04,407.11c1.77-.32,3.55-.61,5.34-.87.92-.14,1.85-.27,2.77-.39-.04,0-.26.03-.04,0,.12-.02.25-.03.37-.05.22-.03.43-.06.65-.08.46-.06.93-.12,1.39-.18,3.58-.45,7.17-.83,10.76-1.23,7.26-.8,14.52-1.6,21.78-2.39,4.11-.45,8.23-.9,12.34-1.36.98-.11,1.94-.79,1.89-1.89-.04-.93-.84-2.01-1.89-1.89-7.32.81-14.65,1.61-21.97,2.42-7.3.8-14.61,1.55-21.9,2.44-4.18.51-8.35,1.08-12.5,1.83-.98.18-1.61,1.42-1.32,2.33.34,1.05,1.28,1.51,2.33,1.32h0Z"/>
      <path class="cls-1" d="M50.54,74.08c.51,7.83,1.03,15.65,1.54,23.48s1.03,15.65,1.54,23.48c.28,4.23.54,8.47,2.27,12.4.32.73,1.41,1.1,2.13.87.83-.27,1.34-.96,1.39-1.82.35-5.79.85-11.57,1.52-17.34.34-2.97.67-5.51,1.06-8.22.41-2.84.85-5.68,1.33-8.51.55-3.23,1.15-6.44,1.79-9.65l-3.71-.5c-.06,8.97-.13,17.93-.19,26.9-.02,2.55-.04,5.1-.05,7.64-.01,1.46,1.61,2.32,2.84,1.63,1.6-.89,2.31-2.64,2.61-4.36.32-1.82.56-3.65.84-5.47.57-3.71,1.16-7.41,1.8-11.11,1.29-7.4,2.8-14.77,4.87-21.99,1.17-4.07,2.52-8.09,4.1-12.02l-3.71-.5c-.71,10.47-1.41,20.93-2.12,31.4-.1,1.44-.19,2.88-.29,4.32-.05.75-.1,1.5-.15,2.26-.03.38-.07.75-.08,1.13,0,.12-.06.34.02-.11-.06.2-.04.17.06-.1,2.07-.99,2.9-.44,2.5,1.63l-.68.68.07-.05c.82-.54,1.25-1.7.68-2.59-.53-.82-1.7-1.26-2.59-.68-1.02.67-1.38,1.92-.72,2.99s1.99,1.44,3.06.84c1.62-.9,1.41-3.1,1.51-4.69.2-3.01.41-6.02.61-9.03.4-5.95.8-11.91,1.2-17.86.23-3.38.46-6.77.68-10.15.06-.94-.77-1.74-1.64-1.86-1-.13-1.72.47-2.07,1.35-2.74,6.83-4.78,13.91-6.41,21.08s-2.87,14.53-4.02,21.85c-.32,2.04-.63,4.08-.95,6.12-.13.87-.23,1.75-.47,2.59-.02.09-.05.17-.08.26-.02.06-.14.43-.04.15.08-.24.02-.04-.01.01-.06.12-.12.23-.19.34-.03.05-.07.11-.11.16-.11.18.27-.25.02-.04,0,0-.16.18-.18.17l.18-.14c-.07.05-.15.09-.22.13l2.84,1.63c.06-8.97.13-17.93.19-26.9.02-2.55.04-5.1.05-7.64,0-.94-.72-1.73-1.64-1.86s-1.89.43-2.07,1.35c-2.33,11.54-4.03,23.21-5.09,34.93-.3,3.26-.54,6.52-.74,9.79l3.52-.95c-.15-.34-.04-.09,0-.02-.04-.11-.08-.21-.12-.32-.07-.18-.14-.37-.2-.56-.15-.43-.28-.86-.39-1.3-.22-.85-.39-1.71-.53-2.58-.01-.08-.03-.17-.04-.25,0-.05-.05-.41-.02-.17s-.01-.12-.02-.17c-.01-.08-.02-.17-.03-.25-.05-.45-.1-.91-.14-1.36-.08-.88-.14-1.77-.19-2.65-.25-3.87-.51-7.73-.76-11.6-.51-7.73-1.02-15.47-1.52-23.2-.29-4.34-.57-8.68-.86-13.01-.06-.98-.82-1.94-1.89-1.89-.97.04-1.96.83-1.89,1.89h0Z"/>
      <path class="cls-1" d="M62.65,54.08c2.78-6.22,5.56-12.45,8.33-18.67s5.56-12.45,8.33-18.67l4.69-10.5-3.45-1.46c-2.05,6.91-4.11,13.82-6,20.77s-3.63,13.94-5.03,21.01c-.34,1.71-.77,3.47-.69,5.23.04.8.15,1.61.45,2.35.42,1.04,1.03,1.79,1.92,2.46.46.35,1.18.31,1.68.1.56-.24.89-.65,1.09-1.22,1.31-3.72,2.62-7.44,4-11.13.68-1.82,1.38-3.63,2.11-5.44.18-.44.35-.87.53-1.31.1-.23.19-.46.29-.69.04-.1.09-.2.13-.31.16-.38-.11.25.07-.16.37-.87.74-1.73,1.13-2.59,1.59-3.58,3.33-7.1,5.28-10.5.96-1.67,1.97-3.32,3.03-4.92.55-.83,1.11-1.65,1.69-2.45.26-.36.52-.72.78-1.07.15-.2.3-.4.45-.6.07-.09.13-.18.2-.27.05-.07.1-.13.15-.2-.11.14-.12.16-.04.05,2.8-3.56,5.84-7.02,7.9-11.07.45-.88.26-2.09-.68-2.59-.86-.46-2.11-.26-2.59.68-.91,1.79-2.02,3.47-3.21,5.08-.27.36-.54.71-.81,1.07.21-.27.03-.04-.01.02-.09.11-.17.22-.26.33-.17.22-.35.44-.52.66-.61.77-1.22,1.53-1.83,2.3-2.5,3.17-4.81,6.46-6.87,9.94-4.05,6.86-7.22,14.21-10.05,21.64-1.58,4.15-3.06,8.34-4.53,12.53l2.78-1.13c.29.22.11.05-.04-.08,0,0-.13-.13-.12-.14.04-.05.22.35.08.09-.06-.1-.12-.21-.18-.31-.18-.31.07.1.04.12,0,0-.08-.21-.08-.23-.05-.14-.08-.28-.12-.42-.02-.08-.03-.17-.05-.25-.05-.21.02.18.02.19.01-.32-.05-.66-.05-.98,0-.29.02-.58.05-.87,0-.09.06-.57.03-.28s.04-.24.06-.34c.13-.79.3-1.57.45-2.35.68-3.41,1.44-6.81,2.25-10.19,1.63-6.77,3.49-13.48,5.42-20.16,1.1-3.79,2.22-7.57,3.35-11.34.27-.91-.25-1.87-1.09-2.23-.79-.33-1.98-.09-2.36.77-2.78,6.22-5.56,12.45-8.33,18.67s-5.56,12.45-8.33,18.67c-1.56,3.5-3.12,7-4.69,10.5-.4.9-.29,2.07.68,2.59.82.44,2.16.29,2.59-.68h0Z"/>
      <path class="cls-1" d="M108.21,3.28c-4.55,6.92-8.9,13.96-13.04,21.13-4.13,7.14-8.06,14.4-11.78,21.76-2.1,4.16-4.13,8.35-6.1,12.57-.42.89-.28,2.08.68,2.59.89.47,2.07.24,2.59-.68,4.45-7.98,8.92-15.95,13.72-23.73,2.38-3.85,4.85-7.66,7.44-11.38,1.29-1.85,2.61-3.69,3.97-5.49.33-.44.66-.88,1-1.32.08-.11.17-.22.25-.33.06-.07.28-.36.06-.07.2-.26.4-.52.61-.78.68-.87,1.37-1.72,2.06-2.58,3.24-3.96,6.68-7.76,10.35-11.34l-2.97-2.29c-3.24,7.42-8.02,14.02-12.89,20.44s-9.86,12.66-13.74,19.68c-2.2,3.98-4.03,8.21-5.19,12.61-.21.78.13,1.74.87,2.13.69.36,1.76.37,2.29-.3,4.89-6.06,9.8-12.1,14.75-18.11s9.85-11.97,14.86-17.89c1.15-1.36,2.34-2.7,3.68-3.88.17-.15.34-.3.52-.44.08-.06.16-.13.23-.19-.12.1-.19.14-.02.02.36-.27.73-.52,1.11-.76s.77-.45,1.18-.64c.07-.03.14-.06.2-.09.07-.03.14-.06.21-.09l-.17.08c.15-.13.53-.2.71-.26l-1.84-3.16c-5.54,6.4-11.07,12.81-16.3,19.47s-10.25,13.65-14.54,21.04c-2.39,4.11-4.55,8.36-6.43,12.73-.21.49-.34.92-.19,1.46.12.44.46.91.87,1.13.93.49,2.02.22,2.59-.68.6-.95,1.2-1.89,1.8-2.84.53-.84.2-2.12-.68-2.59-.93-.49-2.02-.22-2.59.68-.6.95-1.2,1.89-1.8,2.84l3.26,1.91c3.31-7.71,7.52-14.99,12.24-21.91,1.17-1.72,2.37-3.42,3.6-5.09.62-.85,1.25-1.7,1.89-2.54.3-.4.6-.8.91-1.2.17-.22.34-.44.51-.66.07-.09.14-.18.2-.26-.24.31.06-.08.11-.15,2.6-3.35,5.27-6.63,7.99-9.87,3.04-3.63,6.13-7.21,9.23-10.78.53-.62.77-1.55.3-2.29-.44-.68-1.32-1.14-2.13-.87-3.31,1.09-5.93,3.39-8.21,5.95-2.5,2.81-4.86,5.76-7.27,8.66-5.04,6.06-10.05,12.14-15.02,18.24-2.81,3.45-5.62,6.91-8.41,10.38l3.16,1.84c.51-1.93,1.14-3.82,1.88-5.67.09-.22.17-.44.27-.65-.21.47.1-.24.14-.33.21-.47.42-.95.64-1.41.41-.87.84-1.74,1.3-2.59,1.86-3.51,4.03-6.84,6.33-10.07,4.64-6.54,9.8-12.69,14.27-19.35,2.51-3.73,4.8-7.63,6.6-11.75.38-.87.32-1.82-.49-2.44-.74-.57-1.8-.52-2.48.15-6.62,6.46-12.49,13.65-17.84,21.18s-10.05,15.24-14.61,23.15c-2.58,4.46-5.09,8.95-7.6,13.45l3.26,1.91c3.49-7.5,7.2-14.91,11.11-22.2s8.01-14.42,12.31-21.46c2.43-3.97,4.93-7.91,7.49-11.8.54-.83.19-2.13-.68-2.59-.95-.5-2.01-.21-2.59.68h0Z"/>
      <path class="cls-1" d="M82.86,85.05c3.06-5.27,6.12-10.54,9.28-15.76s6.41-10.41,9.83-15.47c1.69-2.5,3.42-4.98,5.19-7.41.9-1.24,1.82-2.46,2.74-3.68.11-.14.22-.29.33-.43.06-.08.13-.16.19-.25.02-.03.18-.23.04-.05s.02-.03.04-.05c.06-.08.13-.16.19-.25.13-.16.25-.33.38-.49.48-.61.96-1.22,1.45-1.82,3.75-4.67,7.74-9.16,12.02-13.37,2.14-2.11,4.35-4.14,6.64-6.09,1.13-.97,2.29-1.91,3.46-2.84.16-.13.32-.25.49-.38.11-.09.37-.28.11-.08.33-.25.65-.5.98-.75.6-.45,1.2-.89,1.81-1.33s1.22-.87,1.84-1.3l-2.29-2.97c-7.06,8.03-13.82,16.33-20.27,24.86-6.39,8.45-12.46,17.14-18.19,26.04-3.23,5.01-6.35,10.09-9.37,15.23-.34.58-.34,1.33,0,1.91.36.62.95.87,1.63.94,3.39.34,5.96-2.55,8.11-4.75,2.02-2.07,4-4.18,5.96-6.32,3.94-4.31,7.78-8.72,11.64-13.11s7.72-8.73,11.76-12.93c3.99-4.15,8.14-8.16,12.56-11.86,1.11-.93,2.24-1.84,3.39-2.73-.29.23.04-.03.15-.12.14-.11.28-.21.42-.32.28-.21.56-.42.84-.63.58-.43,1.17-.86,1.76-1.28,2.36-1.67,4.78-3.23,7.29-4.66.61-.35,1.23-.69,1.85-1.03l-1.91-3.26c-4.91,3.01-9.68,6.24-14.29,9.69-4.68,3.5-9.2,7.19-13.55,11.09s-8.39,7.89-12.3,12.11-7.73,8.75-11.3,13.38c-1.77,2.29-3.48,4.62-5.14,6.99s-3.4,5.12-2.61,8.04c.21.8.65,1.5,1.21,2.11.72.78,1.93.65,2.67,0,5.42-4.79,10.66-9.77,15.71-14.94,5.03-5.15,9.88-10.48,14.53-15.98,2.63-3.11,5.2-6.28,7.7-9.5l-2.29.3c3.5,2.02,7,4.03,10.5,6.05.86.49,2.11.23,2.59-.68s.24-2.06-.68-2.59c-3.5-2.02-7-4.03-10.5-6.05-.65-.38-1.78-.36-2.29.3-4.44,5.71-9.08,11.25-13.92,16.62-4.82,5.35-9.84,10.52-15.03,15.51-2.94,2.82-5.94,5.59-9,8.29h2.67c-.24-.26.14.26-.04-.03-.04-.07-.09-.15-.13-.22-.06-.09-.14-.13-.01,0,.12.12.04.12,0,0-.02-.06-.04-.12-.05-.18s-.03-.12-.04-.18c-.07-.26.04.05.01.13.04-.1-.02-.33-.01-.45,0-.07,0-.5,0-.21,0,.27.03-.13.05-.22.04-.18.09-.36.14-.54.04-.14.09-.27.14-.4.02-.07.05-.13.08-.2.08-.23-.04-.09-.02.05-.03-.19.33-.68.42-.85.32-.58.68-1.12,1.06-1.67,1.59-2.29,3.23-4.54,4.92-6.76.21-.27.42-.55.63-.82-.2.26.01-.02.09-.12.13-.17.26-.33.39-.5.43-.54.85-1.08,1.28-1.62.88-1.1,1.77-2.19,2.67-3.26,1.79-2.14,3.63-4.23,5.51-6.29,3.78-4.13,7.75-8.09,11.88-11.86,2.08-1.9,4.19-3.75,6.35-5.55,1.08-.9,2.17-1.79,3.27-2.67.54-.43,1.08-.86,1.62-1.28.13-.1.25-.2.38-.29.08-.07.17-.13.25-.2-.02.02-.24.18-.07.05.29-.23.59-.45.88-.68,4.46-3.39,9.06-6.58,13.8-9.56.58-.37,1.17-.73,1.76-1.09.84-.52,1.24-1.72.68-2.59s-1.65-1.18-2.59-.68c-5.13,2.77-9.94,6.09-14.49,9.73-4.45,3.56-8.63,7.46-12.63,11.52s-7.95,8.43-11.79,12.76c-3.84,4.34-7.63,8.72-11.51,13.03-1.94,2.15-3.9,4.29-5.9,6.39-1,1.05-2,2.08-3.02,3.11-.51.51-1.01,1.02-1.56,1.49-.14.12-.28.24-.42.35.29-.23-.07.04-.18.12-.15.1-.3.2-.45.28-.1.06-.42.3-.53.28,0,0,.33-.12.11-.05-.07.02-.14.05-.21.07-.16.05-.33.1-.49.13-.08.02-.37.02-.11.02s0,0-.04,0c-.2,0-.39,0-.59-.02l1.63,2.84c5.34-9.11,11.02-18.02,17.03-26.71,3-4.33,6.07-8.61,9.23-12.82.78-1.04,1.56-2.08,2.35-3.12.39-.51.77-1.01,1.16-1.52.11-.14.21-.28.32-.41.35-.45-.22.29.13-.17.21-.27.43-.55.64-.82,1.62-2.08,3.25-4.14,4.91-6.19,3.73-4.61,7.56-9.15,11.47-13.6.63-.71.75-1.71.15-2.48-.54-.7-1.66-1.03-2.44-.49-5.09,3.52-9.88,7.45-14.37,11.71s-8.47,8.62-12.31,13.29-7.65,9.77-11.16,14.88c-3.49,5.08-6.81,10.27-10.02,15.53s-6.29,10.52-9.37,15.82c-.38.65-.75,1.3-1.13,1.95-.5.86-.23,2.11.68,2.59s2.06.24,2.59-.68h0Z"/>
      <path class="cls-1" d="M80.1,110.32c9.45-6.99,18.66-14.28,27.62-21.88s17.51-15.37,25.86-23.48c4.68-4.54,9.27-9.18,13.78-13.89.68-.72.76-1.97,0-2.67s-1.87-.69-2.67,0c-5.93,5.11-11.63,10.5-17.06,16.14-5.43,5.64-10.6,11.54-15.48,17.67-2.81,3.53-5.54,7.13-8.16,10.81-.55.77-.2,1.91.49,2.44.75.58,1.79.51,2.48-.15,6.24-5.95,12.5-11.89,19.08-17.46,1.65-1.4,3.32-2.77,5.02-4.12.38-.3.76-.6,1.15-.9.11-.08.21-.17.32-.25.07-.06.36-.28.07-.05.24-.18.47-.36.71-.54.84-.64,1.68-1.27,2.53-1.89,3.47-2.53,7.05-4.92,10.75-7.08,2.03-1.19,4.11-2.31,6.22-3.36,1.06-.52,2.13-1.03,3.2-1.51.54-.24,1.08-.48,1.63-.71.5-.21-.35.15.14-.06.15-.06.3-.12.45-.19.3-.12.6-.24.9-.36l-1.46-3.45c-5.95,4.28-11.91,8.56-17.86,12.84-5.95,4.28-11.91,8.56-17.86,12.84-3.37,2.43-6.75,4.85-10.12,7.28-.8.58-1.27,1.67-.68,2.59s1.63,1.13,2.59.68c6.13-2.91,12.27-5.82,18.47-8.6,1.56-.7,3.13-1.39,4.7-2.07.77-.33,1.54-.67,2.32-.99.08-.03.6-.25.3-.13.19-.08.39-.16.58-.24.39-.16.78-.32,1.16-.49,3.13-1.3,6.29-2.54,9.47-3.72,3.6-1.33,7.24-2.57,10.91-3.7l-1.46-3.45c-10.75,4.78-21.36,9.89-31.79,15.33-2.97,1.55-5.93,3.13-8.88,4.73-.66.36-1,1.16-.9,1.88.11.79.63,1.29,1.35,1.57,3.06,1.2,6.56.4,9.02-1.67.76-.64.71-2.02,0-2.67-.81-.74-1.86-.68-2.67,0-.33.28.25-.16-.07.06-.12.08-.24.16-.36.24-.25.15-.5.28-.76.41-.38.19.29-.09-.08.03-.14.04-.27.1-.41.14-.3.09-.61.15-.91.21-.14.02-.09.02.15-.02-.07,0-.14.02-.22.02-.14.01-.29.02-.43.02-.29,0-.57-.02-.86-.03-.14-.02-.1,0,.14.02-.07-.01-.14-.02-.21-.04-.14-.03-.28-.06-.42-.09-.3-.08-.6-.17-.89-.29l.45,3.45c10.34-5.62,20.85-10.92,31.52-15.89,3.04-1.42,6.09-2.8,9.16-4.17.86-.38,1.1-1.58.77-2.36-.35-.84-1.32-1.37-2.23-1.09-6.54,2-12.96,4.37-19.29,6.97s-12.78,5.49-19.08,8.42c-3.49,1.62-6.96,3.27-10.43,4.92l1.91,3.26c5.95-4.28,11.91-8.56,17.86-12.84s11.91-8.56,17.86-12.84c3.37-2.43,6.75-4.85,10.12-7.28.77-.56,1.16-1.44.77-2.36-.33-.79-1.35-1.44-2.23-1.09-8.12,3.24-15.71,7.6-22.82,12.67-7.16,5.1-13.86,10.83-20.34,16.77-3.6,3.29-7.13,6.65-10.66,10.02l2.97,2.29c1.13-1.59,2.29-3.16,3.46-4.72.59-.79,1.19-1.58,1.8-2.36.07-.09.14-.18.21-.27-.05.06-.21.27.02-.02.14-.18.28-.36.42-.54.31-.4.63-.8.94-1.2,2.42-3.06,4.9-6.07,7.46-9.02,5.09-5.87,10.46-11.51,16.08-16.89,3.17-3.03,6.41-5.98,9.73-8.84l-2.67-2.67c-8,8.38-16.29,16.49-24.83,24.32s-17.35,15.37-26.4,22.61c-1.27,1.02-2.55,2.03-3.83,3.04-.64.5-1.28,1.01-1.93,1.51-.32.25-.64.5-.97.75.31-.24-.15.11-.17.13-.18.14-.37.28-.55.43-2.59,1.99-5.19,3.95-7.81,5.89-.79.59-1.27,1.66-.68,2.59.51.78,1.74,1.31,2.59.68h0Z"/>
      <path class="cls-1" d="M82.45,118.29c5.66-2.67,11.35-5.27,17.07-7.81,5.66-2.52,11.43-5,16.99-7.32,11.55-4.82,23.21-9.38,34.96-13.67,6.61-2.41,13.26-4.75,19.93-6.99.9-.3,1.48-1.11,1.35-2.07-.12-.87-.92-1.71-1.86-1.64-9.98.7-19.82,2.98-29.05,6.84-2.68,1.12-5.31,2.35-7.88,3.71-.83.44-1.12,1.53-.77,2.36.38.89,1.3,1.3,2.23,1.09,12.4-2.75,24.59-4.38,37.28-4.98,3.54-.17,7.08-.25,10.62-.24v-3.78c-7.77.63-15.32,2.55-22.46,5.67-1.27.55-1.21,2.69,0,3.26,7.74,3.68,16,6.04,24.51,7.03,2.36.27,4.73.43,7.1.48.99.02,1.94-.88,1.89-1.89s-.83-1.87-1.89-1.89c-2.03-.04-4.07-.17-6.09-.37-1.08-.11-1.85-.21-2.73-.34-1.01-.15-2.01-.32-3.01-.5-4-.75-7.94-1.83-11.76-3.22-1.08-.39-2.16-.81-3.22-1.26.04.02.18.08-.02,0-.16-.07-.31-.13-.47-.2-.25-.11-.5-.22-.74-.33-.56-.25-1.11-.51-1.66-.77v3.26c.49-.22.68-.3,1.07-.45.41-.17.83-.33,1.25-.5.87-.33,1.74-.65,2.62-.95,1.69-.57,3.41-1.08,5.14-1.52,3.6-.91,6.95-1.45,10.48-1.74.98-.08,1.94-.81,1.89-1.89s-.83-1.89-1.89-1.89c-12.82,0-25.63,1.1-38.27,3.26-3.56.61-7.11,1.31-10.64,2.09l1.46,3.45c2.16-1.14,4.36-2.2,6.6-3.16.12-.05.25-.11.37-.16.35-.15-.4.17.2-.08.25-.1.49-.2.74-.3.59-.24,1.18-.47,1.77-.7,1.12-.43,2.26-.83,3.4-1.22,4.59-1.54,9.31-2.72,14.09-3.5.66-.11,1.32-.21,1.98-.3.13-.02.26-.04.4-.06-.31.04.23-.03.29-.04.33-.04.66-.08.99-.12,1.39-.16,2.79-.29,4.19-.39l-.5-3.71c-11.93,4.02-23.76,8.3-35.5,12.86s-23.53,9.44-35.14,14.56c-6.44,2.84-12.85,5.76-19.21,8.76-.9.42-1.2,1.78-.68,2.59.59.92,1.63,1.13,2.59.68h0Z"/>
      <path class="cls-1" d="M182.61,82.39c-3.08-6.93-6.15-13.86-9.23-20.79-3.08-6.93-6.15-13.86-9.23-20.79-1.74-3.91-3.47-7.82-5.21-11.73l-3.26,1.91c4.36,6.57,8.72,13.14,13.18,19.63s9.04,12.91,13.84,19.16c2.75,3.59,5.56,7.12,8.45,10.59.6.72,1.8.68,2.48.15.79-.61.89-1.57.49-2.44-4.58-9.87-9.16-19.74-13.74-29.62-1.3-2.8-2.59-5.59-3.89-8.39l-3.26,1.91c6.36,10.01,12.26,20.31,17.68,30.87,1.53,2.99,3.02,5.99,4.47,9.01.35.72,1.39,1.11,2.13.87.81-.26,1.36-.96,1.39-1.82.26-7.83-.54-15.69-2.34-23.31-.23-.96-1.38-1.63-2.33-1.32-1,.33-1.56,1.29-1.32,2.33.43,1.84.81,3.68,1.12,5.54.08.48.16.96.23,1.44.04.24.07.48.11.72,0,.07.11.79.06.4.12.93.23,1.87.32,2.81.37,3.78.49,7.59.37,11.39l3.52-.95c-5.14-10.69-10.76-21.15-16.86-31.32-1.73-2.88-3.49-5.73-5.29-8.56-.53-.83-1.71-1.25-2.59-.68-.93.6-1.12,1.62-.68,2.59,4.58,9.87,9.16,19.74,13.74,29.62,1.3,2.8,2.59,5.59,3.89,8.39l2.97-2.29c-1.26-1.51-2.51-3.03-3.74-4.57-.6-.74-1.19-1.49-1.78-2.24-.3-.38-.59-.75-.88-1.13-.15-.19-.29-.38-.44-.57-.07-.09-.15-.19-.22-.28-.35-.45.11.15-.09-.11-2.39-3.1-4.72-6.23-7.01-9.39-4.59-6.34-9.01-12.79-13.37-19.28-2.46-3.67-4.91-7.35-7.35-11.03-.55-.82-1.69-1.25-2.59-.68-.94.61-1.11,1.62-.68,2.59,3.08,6.93,6.15,13.86,9.23,20.79,3.08,6.93,6.15,13.86,9.23,20.79,1.74,3.91,3.47,7.82,5.21,11.73.4.91,1.79,1.19,2.59.68.94-.61,1.11-1.62.68-2.59h0Z"/>
      <path class="cls-1" d="M181.61,83.19c4.89-3.72,10.03-7.11,15.39-10.14,2.66-1.5,5.38-2.92,8.14-4.24,1.38-.66,2.77-1.3,4.17-1.91.36-.16.71-.31,1.07-.46.11-.05.46-.2.16-.07.21-.09.41-.17.62-.26.69-.29,1.39-.57,2.09-.85,3.23-1.28,6.52-2.43,9.84-3.46.94-.29,1.64-1.33,1.32-2.33s-1.31-1.63-2.33-1.32c-6,1.85-11.87,4.13-17.57,6.78s-11.07,5.62-16.28,8.99c-2.92,1.89-5.77,3.89-8.53,5.99-.41.31-.73.61-.87,1.13-.12.45-.07,1.05.19,1.46.5.77,1.74,1.32,2.59.68h0Z"/>
      <path class="cls-1" d="M63.34,299.15c-10.37,1.57-19.2-6.55-25.6-13.62-4-4.42-7.74-9.11-11.45-13.77s-7.56-9.78-10.89-14.98c-6.41-10-11.76-21.36-11.6-33.49s5.17-22.23,11.23-31.76c6.63-10.43,14.49-20.15,22.44-29.59,3.88-4.61,7.86-9.16,12.23-13.3,4.55-4.31,9.56-7.94,14.95-11.13,11.33-6.72,23.04-12.85,34.57-19.23,5.59-3.09,11.15-6.25,16.79-9.24s11.04-5.52,17-7.16c11.75-3.25,24.06-1.79,35.54,1.84,11.22,3.54,22.09,8.92,31.88,15.44,9.57,6.36,17.94,14.37,24.14,24.09s10.14,21.29,11.89,33.02c1.84,12.37,1.77,25.11,1.11,37.57-.66,12.58-2.43,25.17-6.43,37.16-6.44,19.3-18.74,36.49-34.57,49.21-8.09,6.5-17.28,11.97-27.01,15.63-5.87,2.21-11.94,3.56-18.24,3.45-6.55-.11-12.97-1.52-19.32-3.02-12.96-3.07-25.92-6.16-38.85-9.34-5.93-1.46-11.85-3.04-17.5-5.35-5.66-2.31-10.86-5.56-15.9-8.99s-9.53-6.68-14.54-9.63l-.95,3.52c1.16-.1,2.32-.2,3.48-.29,2.41-.2,2.43-3.98,0-3.78-1.16.1-2.32.2-3.48.29-1.79.15-2.67,2.52-.95,3.52,5.39,3.16,10.42,6.86,15.6,10.34,5.25,3.52,10.66,6.66,16.55,8.98s12.18,3.94,18.39,5.44c6.63,1.6,13.27,3.19,19.9,4.78,6.65,1.6,13.29,3.26,19.96,4.78,6.59,1.5,13.35,2.74,20.14,2.51,11.94-.42,23.46-5.69,33.53-11.81,18-10.95,32.82-27.18,42.04-46.13,10.98-22.57,13.01-48.37,12.15-73.13-.44-12.62-2.12-25.4-6.86-37.19-4.43-11.02-11.21-21.02-19.9-29.12-8.81-8.22-19.28-14.51-30.15-19.61s-23.55-9.4-36.16-9.77c-6.28-.18-12.57.66-18.56,2.55s-11.79,4.74-17.37,7.75c-11.91,6.41-23.68,13.08-35.52,19.62-5.81,3.22-11.72,6.31-17.34,9.87-5.4,3.42-10.34,7.44-14.84,11.97-4.46,4.48-8.54,9.31-12.56,14.18-4.21,5.09-8.29,10.28-12.26,15.57-7.18,9.56-14.08,19.72-17.68,31.24-1.77,5.66-2.66,11.65-2.27,17.58.4,6.09,1.99,12.02,4.34,17.63,4.97,11.88,12.78,22.31,20.84,32.26,6.98,8.63,14.17,18.47,24.27,23.67,4.63,2.39,9.62,3.41,14.8,2.62,1.01-.15,1.57-1.42,1.32-2.33-.3-1.08-1.31-1.47-2.33-1.32h0Z"/>
    </g>
  </g>
</svg>