<?xml version="1.0" encoding="UTF-8"?>
<svg id="Camada_2" data-name="Camada 2" xmlns="http://www.w3.org/2000/svg" viewBox="0 0 139.82 136.04">
  <defs>
    <style>
      .cls-1 {
        fill: #c68043;
      }

      .cls-2 {
        fill: #ffffff;
      }

      .cls-3 {
        fill: #979f8a;
      }
    </style>
  </defs>
  <g id="Camada_1-2" data-name="Camada 1">
    <path class="cls-3" d="M83.21,58.6c4.17-10.73,13.89-18.43,24.26-23.43,10.37-5.01,21.64-7.82,32.35-12.06-2.52,8.66-9.24,15.45-16.38,20.96-12.04,9.3-25.99,16.11-40.72,19.89"/>
    <g>
      <path class="cls-2" d="M52.11,78.7c-8.83-1.2-66.07-20.99-48.92-35.1,10.93-8.88,43,17.93,51.75,22.69-8.46-5.69-38.46-44.12-27.99-53.15,11.07-9.34,29.9,33.81,33.76,41.14-3.43-8.73-14.65-50.03-.68-53.88,17.96-5.17,12.15,41.59,10.02,50.13,3.31-4.09,22.68-30.28,29.45-24.09,8.02,7.09-14.78,31.19-18.56,35.14,8.62-1.42,41.56-13.7,46.16-.51,5.25,14.4-36.57,15.75-44.15,15.45,8.72,3.21,39.61,10.74,36.96,24.24-3.08,14.89-36.74-6.79-41.32-11.79,1.88,8.76,12.07,45.15-3.33,47.01-14.47,2.16-9.5-40.26-8.73-47.69-5.29,5.51-25.37,48.87-35.62,39.05-8.2-8.16,18.53-36.68,23.06-41.41-10.07,6.08-26.46,19.4-39.84,14.74-14.31-4.95-.79-15.58,7.65-18.07,3.52-1.47,28.33-4,28.65-3.39"/>
      <path class="cls-1" d="M66.77,65.36c4.09.17,7.27,3.62,7.11,7.71-.17,4.09-3.62,7.28-7.71,7.11-4.09-.17-7.28-3.62-7.11-7.71.17-4.09,3.62-7.27,7.71-7.11Z"/>
    </g>
  </g>
</svg>
